<?xml version="1.0" standalone="no"?>
<!DOCTYPE svg PUBLIC "-//W3C//DTD SVG 20010904//EN"
 "http://www.w3.org/TR/2001/REC-SVG-20010904/DTD/svg10.dtd">
<svg version="1.0" xmlns="http://www.w3.org/2000/svg"
 width="16.000000pt" height="16.000000pt" viewBox="0 0 16.000000 16.000000"
 preserveAspectRatio="xMidYMid meet">
<metadata>
Created by potrace 1.11, written by Peter Selinger 2001-2013
</metadata>
<g transform="translate(0.000000,16.000000) scale(0.001600,-0.001600)"
fill="#000000" stroke="none">
<path d="M7649 9608 c-6 -10 -15 -15 -21 -12 -7 4 -8 3 -4 -5 4 -6 12 -8 18
-5 7 4 8 2 4 -5 -6 -9 -14 -8 -33 4 -14 10 -22 12 -18 5 6 -10 1 -11 -21 -7
-16 3 -23 4 -16 1 7 -3 17 -15 23 -26 11 -20 10 -20 -12 -4 -27 19 -39 20 -39
5 0 -5 6 -7 13 -3 6 4 4 -2 -7 -14 -18 -20 -43 -21 -30 -1 3 5 10 7 15 4 5 -3
6 1 2 11 -5 15 -7 15 -15 0 -5 -9 -13 -14 -19 -11 -5 3 -6 -1 -3 -10 5 -11 2
-14 -12 -8 -11 4 -15 3 -10 -5 3 -6 1 -14 -5 -18 -7 -4 -9 -3 -5 4 10 16 -14
26 -27 12 -9 -10 -9 -11 0 -6 9 5 11 2 7 -9 -4 -9 -9 -13 -12 -11 -3 3 -12 0
-20 -7 -10 -7 -13 -8 -9 -1 4 7 -1 14 -13 17 -18 5 -18 4 -2 -22 l16 -26 -21
18 c-21 18 -21 18 -16 -1 2 -11 -1 -23 -8 -27 -8 -5 -10 -4 -5 3 4 7 2 20 -4
29 -10 16 -11 16 -6 1 2 -9 -2 -22 -10 -29 -12 -10 -13 -9 -8 7 5 18 5 18 -6
1 -6 -9 -15 -15 -21 -12 -5 3 -6 -1 -3 -9 3 -9 9 -14 13 -12 4 3 7 -4 7 -15 0
-19 -1 -18 -18 3 l-18 23 0 -22 c0 -17 -5 -20 -22 -16 -23 5 -23 5 -3 -11 19
-15 19 -16 1 -9 -15 5 -17 3 -11 -8 7 -12 6 -12 -7 -1 -12 10 -18 10 -28 -2
-6 -9 -9 -20 -5 -26 3 -5 1 -10 -5 -10 -6 0 -9 -4 -6 -9 4 -5 -5 -8 -19 -6
-14 1 -28 -2 -32 -8 -3 -6 -1 -7 5 -3 14 9 15 -4 2 -24 -5 -8 -10 -10 -10 -4
0 7 -7 15 -16 18 -8 3 -12 2 -9 -3 3 -5 1 -12 -4 -16 -6 -3 -8 -12 -4 -20 4
-11 1 -13 -13 -8 -15 5 -17 4 -8 -8 8 -11 6 -18 -8 -31 -10 -10 -18 -14 -18
-9 0 5 -7 12 -16 15 -15 6 -15 4 0 -20 17 -24 17 -25 -1 -16 -10 5 -24 7 -31
5 -10 -4 -10 -9 3 -23 15 -17 15 -18 -2 -16 -12 1 -19 -7 -21 -23 -3 -18 -6
-21 -12 -10 -6 8 -3 20 6 30 12 13 12 19 3 25 -7 4 -10 3 -6 -3 8 -13 -27 -46
-38 -36 -4 5 -3 -1 3 -13 8 -15 8 -24 0 -32 -15 -15 -38 -15 -38 0 0 6 -3 8
-6 5 -4 -4 -1 -14 7 -24 12 -15 12 -16 -5 -10 -14 6 -17 4 -12 -10 6 -15 4
-14 -16 2 -13 11 -17 13 -10 5 18 -21 15 -35 -5 -19 -15 13 -15 12 -3 -11 12
-23 12 -24 -3 -11 -10 7 -18 11 -18 7 -1 -3 -3 -10 -4 -16 -1 -5 -3 -14 -4
-19 0 -6 -10 -8 -22 -6 -16 3 -18 1 -10 -9 13 -15 4 -27 -15 -19 -9 3 -12 -2
-9 -16 3 -18 0 -20 -21 -17 -21 4 -23 2 -14 -14 8 -15 6 -17 -10 -13 -11 3
-17 10 -13 16 3 5 1 7 -5 4 -5 -4 -9 -18 -7 -32 2 -25 2 -25 -18 -8 -20 18
-20 18 -7 -7 7 -14 9 -22 5 -18 -5 5 -17 -6 -27 -22 -14 -24 -22 -29 -36 -21
-12 6 -21 4 -31 -6 -12 -13 -11 -14 8 -8 13 4 21 2 21 -5 0 -6 -4 -8 -10 -5
-5 3 -10 -1 -10 -9 0 -9 -5 -16 -11 -16 -5 0 -7 5 -3 11 4 7 1 10 -7 7 -8 -3
-13 -10 -12 -16 2 -7 -4 -9 -15 -5 -15 6 -15 5 -3 -10 12 -16 12 -17 -5 -10
-16 6 -17 4 -7 -8 10 -13 8 -15 -17 -13 -17 1 -33 -3 -37 -9 -4 -6 -1 -7 7 -2
10 6 12 4 7 -7 -3 -9 0 -22 6 -29 8 -9 5 -8 -8 1 -11 8 -24 20 -28 25 -5 6 -7
3 -3 -7 3 -10 0 -20 -5 -24 -6 -3 -8 -15 -6 -26 4 -15 3 -17 -8 -8 -8 6 -11
19 -8 28 4 13 3 14 -5 4 -5 -8 -8 -24 -6 -37 1 -14 -1 -24 -4 -24 -20 3 -23
-3 -11 -18 10 -14 10 -15 0 -7 -16 15 -54 5 -47 -12 3 -8 -2 -11 -14 -9 -13 3
-17 -1 -13 -11 3 -7 10 -11 16 -7 5 3 7 2 4 -4 -4 -6 -18 -9 -31 -8 -14 2 -27
-3 -30 -12 -3 -8 -10 -11 -16 -8 -6 4 -7 -1 -3 -11 5 -14 3 -16 -12 -11 -15 6
-16 5 -5 -8 9 -11 9 -15 1 -15 -7 0 -10 -4 -7 -9 3 -5 -1 -14 -8 -20 -10 -8
-16 -9 -21 -1 -8 13 -25 13 -25 -1 0 -5 4 -7 10 -4 6 3 9 -4 8 -19 -1 -13 -6
-22 -10 -20 -5 3 -5 10 -2 16 4 7 2 8 -4 4 -7 -4 -12 -2 -12 4 0 7 -7 5 -16
-5 -12 -11 -13 -19 -5 -29 13 -16 2 -30 -13 -16 -7 5 -17 5 -26 -2 -12 -8 -12
-9 3 -4 9 3 17 1 17 -4 0 -6 -5 -10 -11 -10 -5 0 -8 -4 -4 -9 3 -5 1 -12 -4
-15 -5 -4 -13 -1 -17 5 -5 8 -3 9 7 4 11 -7 11 -5 -1 11 -8 10 -16 21 -17 23
-2 3 -2 -6 0 -19 2 -14 -2 -30 -9 -37 -18 -18 -24 -16 -18 5 5 14 4 15 -5 2
-13 -18 -14 -43 -2 -35 5 3 13 0 17 -6 4 -8 3 -9 -5 -5 -6 4 -14 1 -17 -7 -2
-7 -12 -14 -21 -14 -14 0 -14 1 1 12 8 7 13 15 9 18 -9 9 -36 -31 -28 -42 3
-5 1 -12 -4 -15 -5 -4 -13 -2 -16 4 -5 8 -11 7 -21 -1 -11 -9 -11 -16 -2 -33
11 -20 10 -20 -7 -6 -17 14 -18 13 -12 -4 7 -17 6 -17 -10 -5 -14 11 -15 11
-9 0 7 -10 3 -12 -15 -6 -24 7 -24 7 -4 -10 19 -15 19 -16 1 -11 -15 5 -17 4
-7 -7 9 -11 8 -17 -2 -26 -8 -6 -17 -8 -20 -4 -4 3 -9 -2 -13 -11 -3 -9 -14
-16 -23 -16 -23 0 -41 -19 -34 -37 5 -13 2 -13 -14 -5 -18 10 -20 9 -15 -15 4
-22 2 -25 -13 -19 -15 5 -16 4 -5 -9 11 -13 10 -14 -5 -9 -12 5 -16 4 -12 -3
9 -15 -13 -30 -40 -27 -12 0 -20 -3 -17 -8 3 -4 9 -6 14 -3 5 3 12 0 16 -6 4
-7 3 -9 -3 -6 -6 4 -16 1 -22 -7 -9 -11 -9 -15 1 -19 7 -3 3 -4 -9 -4 -21 1
-21 2 -6 19 9 10 11 18 6 18 -6 0 -14 -7 -17 -16 -3 -8 -10 -13 -14 -10 -5 3
-8 -5 -8 -17 1 -15 -4 -22 -17 -21 -10 1 -16 -3 -14 -10 3 -6 10 -10 16 -8 7
1 10 -2 6 -8 -5 -8 -11 -8 -20 0 -9 8 -15 8 -20 0 -3 -6 -11 -7 -17 -4 -7 4
-8 2 -4 -5 4 -6 11 -9 16 -6 5 3 12 0 16 -6 4 -8 3 -9 -5 -5 -6 4 -14 0 -17
-8 -3 -9 -11 -16 -16 -16 -6 0 -5 6 2 15 8 9 8 15 2 15 -6 0 -14 -9 -17 -20
-3 -11 -11 -21 -16 -21 -5 -1 -13 -2 -18 -3 -5 0 -13 -5 -18 -10 -4 -5 -3 -6
3 -3 7 4 14 1 17 -7 4 -9 0 -12 -13 -9 -12 3 -20 -2 -25 -16 -6 -19 -40 -38
-58 -33 -5 1 -6 -2 -2 -7 3 -6 13 -7 22 -4 15 6 16 5 3 -9 -8 -8 -24 -13 -35
-10 -20 4 -20 4 0 -11 19 -16 19 -16 -7 -11 -22 3 -26 1 -22 -11 5 -12 2 -14
-12 -8 -17 6 -17 5 -5 -10 8 -10 11 -20 7 -24 -3 -3 -6 -1 -6 5 0 6 -9 10 -19
9 -11 0 -17 -5 -15 -9 3 -5 11 -5 17 -1 7 4 6 0 -2 -10 -15 -19 -36 -23 -25
-5 4 7 3 8 -4 4 -6 -4 -9 -13 -6 -20 3 -8 -6 -23 -20 -33 -14 -11 -22 -23 -19
-27 3 -3 -1 -6 -10 -6 -11 0 -14 5 -10 18 7 18 5 17 -15 -10 -10 -12 -10 -18
-1 -24 8 -5 9 -3 4 6 -6 9 -4 11 4 6 9 -6 8 -13 -5 -27 -14 -15 -20 -16 -31
-7 -12 10 -14 8 -11 -8 2 -11 -2 -18 -9 -17 -7 2 -13 -2 -13 -8 0 -5 -6 -7
-12 -3 -7 4 -10 4 -6 -1 10 -10 -19 -38 -32 -30 -6 4 -10 3 -9 -2 4 -21 -2
-43 -12 -43 -5 0 -7 6 -3 13 5 8 2 7 -9 -2 -13 -10 -14 -17 -7 -26 8 -10 8
-15 -1 -21 -8 -4 -9 -3 -5 4 4 7 2 12 -3 12 -6 0 -11 -4 -11 -10 0 -5 -5 -10
-11 -10 -5 0 -8 4 -5 8 2 4 -4 9 -15 9 -20 2 -20 2 0 -15 19 -16 19 -18 4 -32
-15 -13 -16 -12 -10 2 4 12 2 15 -9 11 -10 -3 -12 -13 -8 -27 5 -17 4 -19 -7
-8 -16 15 -29 16 -29 1 0 -5 3 -8 8 -6 4 3 13 -2 21 -10 12 -13 11 -14 -9 -8
-12 4 -20 3 -17 -2 3 -4 -2 -17 -10 -28 -13 -16 -15 -17 -10 -2 8 23 -5 22
-34 -4 -21 -17 -21 -19 -3 -10 15 7 21 7 21 -3 0 -7 -6 -13 -14 -14 -7 -1 -20
-3 -28 -4 -9 -1 -14 -7 -11 -15 3 -7 1 -13 -5 -13 -6 0 -7 -5 -3 -11 5 -8 1
-8 -14 0 -18 9 -19 8 -15 -12 4 -22 4 -22 -13 -2 l-17 20 8 -20 c18 -50 18
-50 4 -33 -11 13 -18 15 -29 7 -13 -9 -12 -10 3 -5 9 3 17 1 17 -4 0 -6 -11
-10 -24 -10 -14 0 -28 -4 -31 -10 -3 -6 1 -7 9 -4 9 3 16 1 16 -6 0 -6 5 -8
12 -4 6 4 8 3 5 -3 -3 -5 -20 -9 -36 -8 -18 1 -28 -2 -24 -8 4 -7 -1 -8 -12
-3 -15 5 -16 4 -5 -9 7 -8 17 -12 24 -8 6 3 3 -3 -7 -15 -18 -20 -53 -20 -41
0 4 6 9 6 14 -2 5 -8 10 -8 14 -2 9 14 -21 23 -32 9 -22 -28 -23 -37 -5 -31
17 5 17 5 0 -6 -14 -9 -22 -9 -35 1 -14 11 -15 11 -5 0 6 -7 9 -20 6 -29 -5
-11 -3 -13 7 -7 8 5 11 4 7 -3 -8 -11 -25 -11 -44 1 -10 6 -11 2 -3 -17 6 -17
6 -27 -2 -32 -6 -4 -8 -3 -5 2 3 6 2 16 -4 24 -6 11 -9 8 -9 -12 0 -15 -5 -30
-11 -33 -6 -4 -9 0 -7 8 2 9 -1 16 -7 16 -5 1 -10 -5 -10 -11 0 -7 -9 -11 -20
-10 -11 2 -17 1 -13 -3 3 -3 12 -7 20 -8 7 -2 13 -7 13 -12 0 -5 -11 -8 -24
-6 -19 2 -23 -1 -17 -15 5 -14 4 -15 -8 -5 -12 10 -14 7 -12 -20 2 -29 1 -30
-12 -13 -13 18 -13 18 -11 -1 5 -32 -9 -49 -29 -33 -12 10 -14 10 -8 1 4 -8 2
-13 -4 -13 -6 0 -9 -4 -6 -9 3 -5 -1 -14 -9 -21 -8 -7 -12 -17 -8 -24 4 -6 -1
-5 -10 3 -19 15 -23 26 -5 15 7 -5 8 -3 4 5 -5 7 -11 9 -15 6 -9 -10 -8 -29 4
-38 6 -4 1 -7 -10 -5 -11 2 -23 10 -27 18 -5 8 -5 0 -2 -19 5 -29 4 -33 -11
-27 -13 4 -16 2 -11 -9 3 -8 1 -15 -5 -15 -6 0 -7 -5 -3 -12 4 -7 3 -8 -4 -4
-6 4 -9 14 -6 24 5 14 4 15 -5 2 -6 -8 -11 -23 -11 -32 0 -9 -4 -19 -9 -23 -6
-3 -8 4 -6 15 2 12 0 18 -6 14 -6 -3 -8 -8 -5 -11 9 -10 -14 -43 -30 -43 -9 0
-12 5 -8 12 4 7 3 8 -4 4 -6 -4 -8 -14 -5 -23 4 -9 2 -14 -3 -11 -11 7 -41
-12 -42 -27 -1 -5 -4 -19 -8 -30 -3 -11 -6 -24 -5 -28 1 -5 -3 -6 -9 -2 -8 5
-7 12 2 23 11 13 11 14 -2 10 -8 -3 -15 -14 -14 -26 0 -12 -3 -19 -8 -16 -4 3
-12 -5 -17 -18 -6 -13 -10 -18 -10 -11 -1 13 -26 12 -38 -2 -4 -4 -3 -5 3 -2
7 4 17 1 22 -6 9 -10 5 -13 -18 -11 -17 1 -33 -3 -37 -9 -3 -5 -1 -7 4 -4 6 4
13 0 16 -7 4 -10 0 -14 -13 -11 -14 3 -18 -1 -15 -15 3 -13 -1 -17 -11 -13 -7
3 -11 10 -7 16 3 5 1 7 -5 3 -6 -3 -13 -20 -17 -36 -4 -17 -11 -28 -15 -25 -5
3 -7 13 -4 23 5 13 4 14 -4 3 -5 -8 -9 -24 -7 -38 2 -18 0 -21 -11 -12 -14 11
-20 1 -15 -25 1 -5 -6 -3 -15 5 -16 13 -16 12 -4 -11 13 -24 12 -24 -5 -10
-17 14 -18 13 -13 -7 4 -16 2 -20 -8 -16 -8 3 -11 10 -7 16 3 5 1 7 -5 3 -6
-3 -9 -19 -6 -34 3 -20 2 -23 -5 -12 -9 13 -12 13 -23 1 -11 -11 -11 -13 1 -6
9 5 12 4 7 -3 -4 -6 -14 -8 -23 -5 -11 4 -14 3 -9 -5 4 -7 2 -12 -4 -12 -7 0
-24 -10 -38 -22 -15 -12 -19 -18 -9 -15 21 8 21 -2 0 -28 -13 -16 -15 -17 -10
-2 4 9 2 17 -3 17 -10 0 -13 -10 -12 -45 1 -17 0 -17 -4 -2 -7 21 -24 23 -25
2 -3 -29 -4 -33 -13 -42 -5 -4 -6 -3 -2 4 4 8 -1 11 -15 10 -11 -1 -25 -10
-31 -20 -5 -11 -6 -17 -1 -14 5 3 15 2 22 -2 9 -6 4 -8 -13 -8 -14 0 -26 3
-26 8 0 5 -8 1 -19 -8 -10 -10 -18 -20 -17 -23 1 -3 -2 -5 -6 -5 -14 0 -39
-45 -32 -57 5 -8 2 -9 -10 -5 -10 4 -15 3 -11 -3 3 -6 1 -10 -5 -10 -6 0 -8
-5 -4 -12 5 -8 0 -7 -11 2 -10 8 -16 10 -12 3 4 -6 3 -14 -3 -18 -5 -3 -10
-16 -10 -28 0 -18 -2 -19 -10 -7 -8 13 -10 13 -10 -2 0 -12 -6 -15 -22 -11
-23 5 -23 5 -3 -11 17 -14 17 -15 2 -10 -10 4 -17 3 -16 -2 1 -5 1 -15 0 -23
-1 -11 -4 -10 -14 4 -9 11 -16 14 -21 7 -3 -6 -2 -13 4 -17 5 -3 10 -11 10
-17 0 -6 -10 -3 -21 8 -22 19 -22 19 -10 -3 15 -29 14 -34 -4 -27 -8 4 -12 11
-9 18 3 6 -2 2 -10 -9 -9 -11 -14 -25 -11 -33 3 -8 0 -10 -7 -6 -8 5 -9 2 -4
-11 6 -16 4 -16 -11 -4 -15 12 -16 12 -10 -5 6 -16 5 -17 -8 -6 -13 11 -14 10
-10 -2 6 -14 -22 -46 -34 -40 -3 2 -7 -2 -10 -9 -2 -7 1 -9 8 -5 7 5 8 1 4
-10 -4 -12 -8 -14 -11 -6 -3 10 -7 10 -18 1 -8 -6 -12 -15 -9 -19 2 -4 -7 -5
-20 -2 -14 2 -25 9 -25 16 0 8 -2 8 -8 0 -4 -6 -14 -14 -22 -18 -9 -4 -7 -5 6
-2 17 3 20 -1 17 -15 -3 -11 -9 -22 -14 -25 -5 -3 -6 1 -3 9 3 9 -3 16 -15 20
-16 4 -21 0 -22 -16 0 -21 -1 -21 -9 -2 -6 13 -9 15 -9 5 -1 -13 -2 -13 -11 0
-8 13 -11 13 -22 1 -11 -11 -11 -13 1 -6 9 5 12 4 7 -3 -4 -7 -16 -12 -26 -12
-10 0 -21 -4 -24 -9 -8 -12 -30 -8 -50 8 -18 15 -32 9 -21 -8 3 -6 11 -9 16
-6 5 4 9 4 9 0 0 -12 -46 -22 -62 -14 -12 7 -16 5 -13 -9 1 -9 8 -16 15 -14 6
1 8 -2 4 -9 -5 -9 -12 -7 -23 7 -14 17 -44 23 -68 14 -5 -2 -14 -4 -22 -4 -8
-1 -16 -8 -18 -16 -4 -13 -3 -13 7 0 10 13 11 13 7 0 -2 -9 -15 -15 -33 -15
-16 0 -31 -2 -34 -5 -3 -3 -14 -12 -24 -20 -18 -14 -19 -13 -13 3 3 9 2 17 -3
17 -6 0 -10 -7 -10 -15 0 -8 -5 -15 -11 -15 -5 0 -7 5 -3 12 5 7 3 8 -7 2 -23
-14 -51 -16 -43 -2 4 7 3 8 -5 4 -6 -4 -9 -12 -6 -17 4 -5 1 -9 -5 -9 -6 0 -8
-5 -4 -12 4 -6 3 -8 -4 -4 -5 3 -13 0 -16 -6 -3 -7 -4 -4 -3 7 1 11 7 24 12
28 6 5 4 7 -5 4 -8 -2 -14 -10 -12 -16 1 -7 -6 -12 -15 -11 -33 4 -42 0 -37
-15 4 -11 2 -13 -9 -9 -9 3 -14 14 -12 26 3 11 1 17 -3 14 -7 -8 -8 -13 -11
-41 0 -8 -6 -15 -12 -15 -5 0 -8 4 -4 9 3 5 0 13 -7 17 -7 4 -10 4 -6 -1 12
-13 -12 -35 -29 -28 -12 5 -14 3 -8 -7 5 -9 4 -11 -4 -6 -6 4 -9 12 -6 17 4 5
2 9 -2 9 -5 0 -13 -8 -20 -18 -12 -19 -38 -22 -62 -7 -10 5 -12 4 -7 -3 8 -14
-20 -12 -44 3 -12 7 -13 6 -3 -7 7 -8 9 -19 5 -24 -4 -4 0 -3 9 4 13 9 16 9
16 -3 0 -8 -4 -12 -8 -9 -4 2 -10 0 -14 -6 -4 -6 -11 -8 -16 -5 -5 4 -9 0 -9
-7 0 -10 -2 -10 -8 -1 -4 7 -17 11 -29 10 -12 0 -20 -4 -17 -8 2 -4 -3 -9 -11
-13 -9 -3 -12 -12 -8 -23 6 -16 5 -16 -10 -4 -15 12 -17 12 -12 -1 6 -15 -16
-40 -41 -45 -8 -2 -21 -4 -30 -6 -9 -2 -21 -11 -26 -20 -5 -10 -13 -15 -18
-12 -5 3 -12 0 -16 -6 -4 -7 -3 -9 3 -6 15 10 24 -20 10 -31 -7 -5 -20 -8 -30
-6 -12 1 -17 -2 -13 -11 3 -8 1 -17 -4 -20 -6 -4 -10 -1 -10 4 0 6 -4 11 -9
11 -5 0 -7 -8 -5 -18 3 -10 -7 -28 -25 -46 -19 -18 -27 -34 -24 -45 4 -9 -3
-5 -16 9 -16 17 -21 20 -17 8 3 -10 1 -18 -5 -18 -6 0 -8 -4 -5 -9 3 -5 -2
-15 -11 -22 -12 -10 -14 -10 -9 -1 4 7 2 12 -5 12 -6 0 -9 -8 -6 -20 4 -17 2
-18 -14 -9 -11 5 -16 15 -13 21 4 7 3 8 -5 4 -6 -4 -9 -11 -6 -16 3 -5 1 -11
-5 -15 -7 -4 -6 -13 1 -28 11 -21 10 -20 -16 3 l-28 25 16 -25 c16 -25 16 -26
-5 -27 -12 -1 -29 3 -38 10 -13 11 -13 10 -1 -5 11 -15 11 -19 -3 -24 -14 -5
-14 -9 -4 -22 12 -13 10 -14 -10 -3 -22 12 -23 11 -13 -8 10 -18 8 -19 -17
-16 -15 2 -21 2 -14 -1 6 -3 12 -10 12 -15 0 -6 -4 -7 -10 -4 -9 5 -15 -16
-11 -38 1 -5 -3 -6 -9 -2 -6 4 -8 16 -5 28 5 20 5 20 -5 4 -6 -10 -16 -14 -23
-10 -8 4 -7 1 1 -10 9 -11 11 -21 4 -33 -8 -15 -9 -15 -15 0 -5 11 -3 15 5 10
7 -4 8 -3 4 5 -4 6 -12 9 -17 5 -5 -3 -7 -10 -4 -15 4 -5 0 -9 -7 -9 -10 0 -9
-3 1 -9 12 -8 12 -12 2 -25 -7 -9 -18 -13 -25 -9 -6 4 -20 9 -31 10 -16 2 -17
1 -5 -6 8 -5 17 -8 20 -6 4 2 7 -2 7 -10 0 -17 -13 -20 -22 -4 -12 19 -46 -21
-35 -41 8 -14 5 -16 -13 -13 -15 3 -30 -4 -46 -21 -21 -22 -22 -28 -10 -43 13
-17 12 -17 -4 -4 -16 13 -19 12 -24 -8 -3 -13 -11 -20 -19 -17 -8 3 -14 1 -14
-5 0 -6 -4 -8 -9 -4 -5 3 -12 1 -15 -4 -4 -5 -1 -13 5 -17 8 -5 9 -3 4 7 -5 8
-4 10 0 6 5 -4 10 -14 11 -22 2 -12 -3 -11 -24 3 -26 16 -26 16 -13 -1 8 -10
11 -21 7 -24 -4 -4 -11 -1 -17 7 -7 11 -8 8 -5 -12 3 -17 0 -27 -7 -25 -6 1
-11 -3 -12 -10 0 -6 -4 -15 -9 -20 -5 -4 -7 -4 -4 2 3 6 -1 17 -10 25 -14 13
-15 12 -9 -4 6 -14 4 -17 -8 -12 -9 3 -13 2 -10 -3 3 -5 1 -12 -4 -16 -5 -3
-8 -14 -6 -25 3 -13 -1 -17 -11 -13 -7 3 -12 9 -9 13 3 5 0 12 -6 16 -7 4 -9
3 -5 -4 3 -6 2 -13 -4 -17 -6 -4 -8 -11 -5 -16 5 -8 -7 -13 -27 -11 -3 1 -9
-5 -12 -14 -4 -12 -2 -12 14 -4 31 17 37 11 7 -8 -15 -10 -24 -21 -21 -25 4
-3 -3 -5 -14 -2 -23 4 -47 -18 -38 -34 4 -6 -2 -8 -15 -6 -20 4 -20 4 -3 -23
l17 -27 -26 23 c-18 17 -27 20 -32 11 -5 -7 -4 -10 2 -6 6 4 13 0 16 -7 4 -10
0 -13 -14 -11 -12 2 -23 -4 -30 -17 -9 -16 -8 -19 3 -12 7 4 4 -2 -6 -14 -11
-12 -25 -22 -33 -22 -7 0 -16 -7 -19 -15 -4 -8 -11 -12 -18 -8 -6 4 -6 0 2 -9
10 -13 10 -18 1 -24 -7 -4 -9 -3 -6 3 4 6 1 13 -7 16 -11 4 -13 -2 -11 -26 2
-18 1 -25 -1 -15 -8 26 -33 31 -26 5 5 -20 4 -21 -13 -7 -17 14 -18 14 -7 -7
8 -14 9 -24 2 -28 -6 -4 -7 -11 -4 -17 4 -7 2 -8 -5 -4 -6 4 -9 11 -7 15 3 3
-4 7 -14 7 -15 0 -17 -3 -7 -15 10 -12 9 -14 -5 -8 -20 7 -25 -8 -5 -17 6 -4
2 -4 -10 -2 -12 2 -24 -2 -27 -10 -3 -9 1 -11 12 -8 14 5 15 4 2 -5 -11 -7
-20 -5 -35 7 -14 12 -16 13 -8 2 7 -10 8 -21 3 -30 -5 -8 -7 -17 -4 -21 2 -4
0 -10 -5 -14 -6 -3 -8 3 -6 15 2 11 0 20 -6 20 -8 0 -14 -23 -9 -45 1 -5 -9
-1 -21 10 l-23 20 17 -25 c23 -33 22 -48 -1 -19 -15 17 -21 19 -27 9 -5 -9 -4
-11 3 -6 7 4 12 1 12 -9 0 -11 -5 -15 -16 -11 -10 4 -13 2 -8 -6 5 -8 2 -9
-11 -4 -15 5 -16 4 -5 -9 11 -13 10 -14 -4 -9 -12 4 -16 0 -16 -15 0 -12 -4
-21 -10 -21 -5 0 -7 -8 -4 -17 5 -15 4 -15 -4 -3 -7 9 -7 19 -2 25 7 8 5 12
-5 12 -8 0 -12 -4 -9 -9 3 -4 -2 -11 -10 -14 -9 -3 -13 -11 -9 -17 4 -6 0 -8
-9 -5 -8 4 -15 0 -15 -8 0 -7 4 -11 9 -8 4 3 8 0 8 -7 0 -7 -10 -9 -25 -7 -20
4 -23 3 -14 -8 9 -11 8 -14 0 -14 -7 0 -10 -4 -6 -9 3 -5 1 -12 -5 -16 -6 -4
-7 -11 -4 -17 4 -6 2 -8 -4 -4 -6 3 -14 2 -17 -4 -5 -8 -12 -7 -23 2 -14 10
-15 10 -4 -2 16 -18 16 -33 0 -24 -10 6 -10 4 0 -8 11 -14 10 -18 -5 -27 -10
-6 -14 -11 -10 -11 4 0 3 -8 -2 -18 -7 -13 -6 -23 2 -32 10 -12 9 -12 -3 -3
-10 7 -21 8 -30 3 -12 -7 -12 -11 1 -26 11 -14 11 -18 1 -22 -10 -3 -10 -7 0
-20 7 -10 8 -14 4 -10 -5 4 -15 3 -23 -3 -9 -9 -13 -8 -13 0 0 6 5 11 11 11 8
0 7 6 -2 17 -12 14 -12 16 0 8 10 -6 12 -4 6 5 -6 9 -4 11 6 5 8 -5 10 -4 6 0
-4 5 -13 10 -20 11 -10 1 -13 -29 -12 -130 1 -95 5 -130 13 -128 7 1 13 -2 13
-8 1 -5 2 -16 3 -22 1 -7 -3 -17 -9 -21 -6 -5 -3 -7 8 -3 9 3 17 1 17 -4 0 -6
-4 -10 -10 -10 -5 0 -1 -9 10 -20 11 -11 20 -24 20 -30 0 -5 7 -10 15 -10 19
0 14 -38 -6 -51 -10 -7 -7 -8 11 -7 19 2 24 -1 22 -16 -2 -12 1 -16 10 -10 7
4 10 4 6 -1 -4 -4 -3 -16 3 -26 7 -15 6 -17 -5 -13 -9 3 -14 11 -13 16 1 6 -5
13 -13 15 -9 3 -11 1 -5 -4 6 -4 11 -15 13 -23 2 -8 8 -17 13 -18 5 -2 7 -8 3
-13 -3 -5 2 -9 11 -9 9 0 13 -5 10 -10 -4 -6 -11 -8 -16 -5 -5 3 -6 -1 -3 -9
3 -9 10 -16 16 -16 5 0 6 6 2 13 -4 6 1 4 11 -5 17 -16 17 -18 0 -45 -14 -21
-15 -25 -3 -15 13 10 17 10 21 -2 4 -9 -1 -20 -11 -25 -9 -6 -12 -11 -7 -11 6
0 16 5 23 12 17 17 16 -13 0 -32 -10 -11 -9 -11 6 0 18 14 18 13 12 -10 -6
-19 -5 -21 3 -10 9 12 11 11 11 -7 0 -13 5 -23 11 -23 5 0 8 4 5 8 -3 5 1 9 8
9 8 0 13 -7 11 -16 -1 -9 0 -20 4 -26 10 -18 10 -35 -1 -29 -7 4 -8 2 -4 -5 5
-7 16 -9 28 -5 18 5 19 4 7 -9 -13 -14 -17 -14 -39 1 -21 13 -23 13 -13 0 7
-8 11 -17 8 -20 -3 -3 14 -4 37 -3 24 2 37 1 30 -2 -10 -4 -10 -8 0 -21 10
-12 10 -14 1 -8 -8 4 -13 2 -13 -4 0 -6 -5 -8 -12 -4 -7 4 -8 3 -4 -4 4 -6 13
-9 20 -6 7 3 19 -3 27 -12 8 -10 9 -15 2 -11 -6 4 -14 3 -18 -3 -3 -5 1 -10 9
-10 9 0 16 -4 16 -10 0 -5 -5 -10 -12 -10 -6 0 -8 -3 -5 -6 4 -4 14 -1 24 7 9
8 14 9 10 2 -4 -7 0 -16 10 -22 10 -6 12 -11 6 -11 -7 0 -13 -5 -13 -11 0 -6
9 -8 23 -4 15 4 18 3 8 -3 -9 -7 -10 -12 -2 -16 8 -5 8 -13 1 -26 -7 -13 -7
-21 0 -25 9 -6 14 1 11 17 0 5 3 8 8 8 6 0 11 -17 13 -37 2 -21 9 -39 16 -39
6 -1 15 -3 20 -4 4 -1 11 -2 15 -1 5 1 6 -3 2 -9 -8 -13 13 -52 25 -45 4 3 7
-2 6 -11 -1 -8 -8 -19 -15 -24 -9 -5 -10 -10 -2 -14 6 -4 11 -2 11 3 0 6 11
10 25 9 15 -2 21 -6 16 -11 -13 -13 -2 -38 13 -30 6 3 6 1 -1 -8 -17 -18 -16
-34 0 -20 11 8 18 6 32 -9 10 -11 13 -20 7 -20 -7 0 -12 5 -12 12 0 6 -3 8 -6
5 -4 -4 -2 -13 4 -20 7 -8 8 -18 4 -23 -4 -4 1 -2 11 5 9 8 20 11 24 7 3 -3 1
-6 -6 -6 -7 0 -10 -4 -6 -10 3 -5 13 -7 23 -4 14 5 14 4 3 -4 -8 -6 -20 -8
-28 -5 -7 3 -13 0 -13 -7 0 -6 4 -9 9 -5 6 3 15 -3 21 -12 11 -17 11 -17 6 0
-8 25 3 21 13 -5 6 -15 5 -28 -3 -37 -8 -11 -8 -13 1 -8 6 4 13 2 15 -5 3 -7
7 -5 11 6 5 11 3 15 -5 10 -7 -4 -8 -3 -4 5 6 9 11 9 22 0 11 -9 11 -15 3 -25
-13 -16 2 -19 18 -3 7 7 9 3 6 -15 -3 -15 1 -31 10 -41 23 -22 33 -18 13 4
-10 11 -16 26 -13 33 3 8 6 6 6 -5 1 -11 6 -15 13 -11 6 4 8 3 4 -4 -3 -6 -1
-14 5 -18 9 -5 6 -11 -7 -22 -19 -14 -18 -14 1 -8 11 3 27 1 35 -5 13 -9 13
-10 0 -7 -8 2 -16 -2 -17 -7 -1 -6 8 -9 20 -7 20 2 21 2 5 -11 -10 -8 -18 -18
-18 -22 0 -4 6 -2 13 4 8 6 17 8 20 4 4 -3 7 0 7 7 0 7 3 10 6 7 4 -4 1 -13
-5 -21 -9 -11 -9 -16 0 -22 8 -4 9 -3 5 4 -4 7 -3 12 2 12 12 0 23 -25 18 -43
-1 -6 -1 -9 1 -4 3 4 9 7 14 7 6 0 7 -4 4 -10 -3 -5 1 -10 9 -10 9 0 16 -4 16
-8 0 -5 7 -17 15 -28 9 -10 14 -13 13 -5 -2 7 3 15 10 16 7 2 8 1 2 -2 -5 -2
-8 -9 -4 -14 3 -5 -2 -12 -10 -15 -9 -3 -16 -11 -16 -17 0 -7 4 -7 12 1 7 7
18 12 26 12 11 0 12 -3 3 -14 -9 -11 -9 -16 0 -22 8 -4 9 -3 5 4 -4 7 -2 12 3
12 6 0 11 -6 11 -12 0 -9 4 -8 10 2 5 8 10 10 10 4 0 -5 -6 -16 -12 -23 -10
-11 -10 -13 0 -7 6 4 13 2 13 -3 1 -6 3 -15 4 -21 1 -5 3 -12 4 -15 0 -3 9 -1
20 4 15 9 18 7 16 -14 -2 -16 1 -22 10 -19 7 3 15 -2 19 -11 3 -9 10 -13 16
-10 5 3 10 1 10 -4 0 -6 -5 -11 -11 -11 -5 0 -7 -5 -3 -11 3 -6 9 -7 13 -3 3
5 12 10 20 12 12 3 12 1 0 -14 -11 -13 -11 -18 -1 -21 6 -3 10 -9 6 -14 -3 -5
0 -9 5 -9 14 0 14 13 -1 28 -8 8 -8 12 -1 12 6 0 14 -7 17 -16 3 -9 11 -12 18
-8 9 5 8 2 -1 -9 -8 -10 -11 -20 -7 -24 3 -3 6 -1 6 5 0 7 5 12 12 12 6 0 8
-3 5 -7 -7 -7 39 -53 54 -53 5 0 9 -5 9 -12 0 -9 -3 -9 -12 0 -7 7 -19 12 -28
11 -13 0 -13 -1 0 -6 8 -3 22 -12 31 -20 9 -8 26 -15 37 -16 17 -1 19 -4 9
-16 -10 -12 -9 -13 2 -6 11 6 13 4 9 -7 -5 -11 0 -14 17 -13 19 3 23 -1 20
-21 -1 -12 3 -22 9 -21 6 1 10 -3 9 -8 -1 -6 15 -10 36 -9 25 0 38 -4 38 -12
0 -7 -4 -11 -9 -8 -4 3 -8 -2 -8 -10 0 -8 5 -18 12 -22 7 -4 8 -3 4 4 -4 7 -2
12 3 12 6 0 11 -5 11 -11 0 -8 6 -7 18 2 14 11 15 11 4 -1 -16 -19 -16 -35 1
-21 14 11 27 5 27 -13 0 -6 -5 -4 -10 4 -8 13 -10 12 -10 -2 0 -10 7 -18 16
-18 9 0 12 -5 8 -12 -5 -8 0 -7 11 2 17 14 18 13 12 -2 -3 -10 -1 -20 5 -24 7
-4 6 -10 -3 -16 -11 -8 -11 -9 1 -5 8 2 14 11 12 20 -1 8 1 18 6 21 5 3 9 -9
8 -26 0 -22 4 -32 17 -34 9 -1 15 2 11 7 -3 5 -10 6 -16 3 -7 -4 -8 -2 -4 5 6
8 12 9 20 2 7 -6 16 -8 20 -4 4 4 4 0 1 -9 -9 -23 39 -70 56 -54 9 8 10 8 5
-1 -4 -7 -2 -13 3 -13 6 0 10 -5 9 -12 -2 -6 8 -17 22 -25 14 -7 24 -17 22
-23 -1 -5 2 -10 8 -10 16 0 12 15 -8 33 -10 10 -22 14 -27 10 -4 -5 -5 -2 0 6
6 10 4 12 -5 6 -9 -6 -11 -4 -6 4 6 9 12 9 25 -3 10 -9 21 -13 25 -9 4 5 6 1
4 -7 -1 -8 3 -14 10 -12 6 1 11 -1 11 -5 -1 -5 -1 -17 0 -27 1 -19 1 -19 23 0
12 10 18 14 15 7 -4 -6 0 -18 8 -26 8 -9 15 -19 15 -24 -1 -4 -9 2 -20 15 -18
21 -19 22 -17 3 1 -11 3 -18 6 -15 2 2 15 -6 28 -18 12 -12 26 -18 30 -15 3 4
1 7 -6 7 -7 0 -9 5 -5 12 5 7 3 8 -6 3 -9 -6 -11 -4 -5 5 6 10 11 10 20 -3 7
-9 15 -14 18 -11 3 3 3 -4 0 -17 -5 -18 -3 -21 10 -16 10 4 25 10 34 14 13 5
12 1 -5 -17 -12 -13 -19 -26 -16 -29 3 -3 8 -1 12 5 4 6 16 14 26 17 14 6 16
5 8 -5 -7 -10 -4 -18 14 -31 14 -10 23 -14 22 -9 -3 10 1 12 25 12 8 0 7 -3
-3 -10 -12 -8 -12 -11 3 -28 9 -10 15 -21 12 -23 -2 -3 5 -6 16 -6 12 -1 27
-10 34 -20 11 -15 16 -16 27 -5 11 11 10 12 -3 7 -9 -3 -19 0 -21 7 -4 8 3 13
17 13 13 0 23 -2 23 -5 -2 -26 5 -40 20 -40 14 0 15 -2 2 -10 -12 -8 -11 -10
5 -7 11 1 26 6 33 11 8 5 12 3 10 -6 -2 -8 5 -12 17 -10 16 2 17 1 5 -7 -13
-9 -12 -11 5 -12 11 -1 23 -1 26 -1 3 1 6 -5 6 -13 0 -8 -4 -12 -9 -9 -4 3 -8
0 -8 -5 0 -15 13 -14 29 1 11 11 12 8 6 -12 -3 -14 -3 -20 2 -15 11 13 33 17
33 6 0 -5 -6 -11 -12 -14 -7 -2 5 -3 28 -1 29 2 41 -2 41 -12 0 -10 -4 -11
-14 -2 -10 8 -17 8 -26 -1 -9 -10 -8 -11 7 -5 14 5 17 4 12 -5 -4 -6 -4 -11 1
-10 4 1 20 1 35 0 21 -1 25 -5 22 -23 -4 -21 -4 -22 5 -3 6 15 5 23 -7 32 -9
7 -11 13 -5 13 17 0 35 -28 27 -42 -5 -8 -1 -8 11 2 17 14 18 14 6 -8 -9 -18
-9 -22 1 -20 6 2 12 -2 13 -9 0 -6 4 -15 9 -20 5 -4 6 -3 3 3 -4 7 0 17 8 24
12 10 15 9 15 -6 0 -16 2 -17 10 -4 8 13 10 13 10 -2 0 -19 20 -18 46 2 17 14
18 14 5 -2 -8 -11 -9 -18 -3 -18 6 0 9 -9 7 -19 -2 -13 2 -18 13 -16 9 1 22 0
27 -4 17 -10 35 -10 29 1 -3 5 -8 7 -12 4 -3 -3 -11 2 -18 12 -9 11 -13 13
-14 4 0 -7 -5 -10 -11 -6 -8 4 -7 9 2 14 7 5 22 2 34 -6 12 -8 25 -11 28 -7 4
3 7 -1 7 -10 0 -10 6 -14 14 -11 8 3 17 0 22 -7 4 -8 3 -10 -4 -5 -8 5 -10 2
-6 -8 3 -9 10 -16 16 -16 5 0 6 5 3 10 -3 6 1 10 10 10 9 0 14 -4 11 -9 -3 -5
0 -14 7 -20 10 -8 14 -7 14 4 0 8 -5 11 -10 8 -6 -3 -7 -1 -4 5 8 12 32 10 44
-3 4 -4 2 -5 -4 -1 -8 4 -13 1 -13 -9 0 -12 4 -14 19 -5 25 13 31 13 31 0 0
-6 -5 -9 -11 -8 -6 2 -14 -4 -16 -12 -4 -12 -3 -12 5 -2 12 17 22 17 34 0 8
-10 9 -10 5 2 -3 10 2 16 14 17 10 1 19 -3 19 -8 0 -6 5 -7 12 -3 8 5 9 2 5
-9 -3 -9 -2 -19 4 -22 5 -4 7 -9 5 -13 -2 -4 9 -7 24 -7 16 -1 26 3 23 8 -3 5
3 7 13 5 11 -2 17 -11 16 -19 -2 -8 0 -11 3 -7 10 10 47 -11 40 -22 -3 -5 0
-12 6 -16 8 -4 9 -3 5 4 -8 13 6 16 18 5 11 -11 106 -11 106 0 0 4 6 5 13 0
17 -11 47 -14 48 -5 3 27 9 46 19 56 8 8 9 6 5 -6 -8 -19 9 -25 20 -8 4 7 11
7 18 2 15 -12 48 -12 41 0 -3 5 -10 6 -15 3 -5 -4 -9 -1 -9 5 0 6 10 8 25 4
16 -4 25 -2 25 6 0 6 -6 8 -12 4 -7 -4 -10 -3 -5 1 4 5 18 10 30 12 18 2 19 1
7 -7 -12 -8 -11 -10 5 -7 27 4 45 16 45 30 0 6 -6 3 -13 -7 -13 -18 -14 -18
-21 0 -4 10 -4 15 0 11 4 -4 16 1 27 10 10 10 21 17 23 16 12 -8 24 -1 18 9
-4 6 -3 8 4 4 6 -3 15 1 20 10 6 11 11 13 16 5 4 -6 2 -11 -4 -11 -6 0 -8 -5
-4 -11 9 -14 24 9 17 27 -2 7 3 11 13 11 9 -1 19 5 21 13 4 13 3 13 -7 0 -10
-13 -11 -13 -7 0 2 8 10 15 18 15 21 0 62 32 51 39 -6 3 -13 1 -15 -4 -3 -6
-4 -5 -3 2 2 7 12 12 24 12 14 -1 19 3 15 13 -3 8 0 13 8 11 7 -2 13 4 14 12
1 8 7 14 14 12 7 -1 10 2 7 7 -3 5 5 16 19 25 25 16 29 34 10 49 -6 5 -1 7 10
5 31 -5 63 28 60 63 -1 16 1 26 6 23 5 -3 7 -10 4 -15 -4 -5 -1 -9 4 -9 6 0
11 7 11 16 0 8 4 13 9 10 5 -3 12 1 15 10 4 10 2 13 -6 8 -7 -5 -8 -3 -3 5 4
7 17 10 30 7 13 -3 26 -2 29 3 3 5 -2 8 -11 7 -10 0 -19 7 -21 19 -2 16 -1 17
7 5 9 -13 12 -13 27 1 12 13 13 18 3 24 -7 5 -10 4 -5 -3 3 -6 2 -13 -3 -16
-5 -4 -8 2 -7 11 2 11 11 18 24 17 12 -1 18 4 15 11 -2 7 1 16 6 20 6 3 9 11
5 16 -3 5 -1 8 4 7 5 -2 19 8 30 22 18 21 23 23 32 10 5 -8 10 -10 10 -4 0 5
-4 14 -10 20 -6 6 -3 10 10 11 13 1 18 -2 14 -9 -4 -6 -3 -8 4 -5 5 4 8 16 5
27 -3 12 0 20 6 20 7 0 9 -6 5 -12 -5 -10 -4 -10 5 -2 7 6 13 20 14 32 0 11 5
18 10 15 5 -3 6 5 3 18 -3 13 -3 18 0 12 10 -22 33 -15 29 8 -3 15 0 19 10 15
8 -3 15 -1 15 3 0 5 11 8 25 7 13 -2 22 1 19 6 -3 5 -12 7 -19 4 -9 -3 -13 2
-12 14 1 14 4 16 14 9 7 -6 18 -9 25 -6 8 3 6 6 -5 6 -10 1 -15 6 -12 12 4 6
10 8 13 5 3 -3 11 -1 19 5 10 9 11 15 2 26 -10 11 -9 12 5 7 19 -7 22 12 4 20
-7 3 0 3 15 1 24 -3 27 -2 17 11 -13 15 -8 18 25 14 l20 -2 -20 17 c-11 9 -14
14 -7 10 6 -3 12 -1 12 4 0 6 5 11 11 11 5 0 7 -4 4 -10 -3 -5 -1 -10 4 -10
15 0 14 27 -1 34 -7 3 -2 4 12 3 16 -1 24 3 22 11 -1 6 2 12 8 12 5 0 10 5 10
11 0 5 -4 7 -10 4 -6 -3 -7 1 -3 10 4 13 8 14 14 4 5 -9 12 -2 23 22 9 19 14
26 11 16 -2 -9 0 -17 5 -17 6 0 10 5 10 11 0 5 5 7 12 3 7 -5 8 -3 2 7 -12 20
-14 38 -4 44 5 3 7 -4 5 -15 -2 -11 0 -18 6 -15 5 4 9 13 9 21 0 8 5 12 10 9
14 -9 12 18 -3 35 -10 12 -9 12 4 2 9 -6 19 -9 23 -5 4 4 4 -1 1 -12 -3 -11 2
-5 12 13 11 18 23 29 27 25 5 -4 4 1 -2 13 -9 16 -8 21 3 21 8 0 11 -5 8 -11
-3 -6 -3 -8 2 -4 4 4 15 2 24 -5 8 -6 5 2 -7 20 -19 28 -20 31 -5 29 10 -2 21
2 26 8 5 8 10 6 17 -4 7 -11 10 -11 10 -2 0 7 -7 15 -15 18 -8 4 -12 11 -9 16
4 6 10 5 15 -3 4 -7 11 -10 15 -6 4 3 1 14 -7 24 -8 9 -9 14 -3 10 7 -4 17 0
24 8 7 8 17 15 22 15 6 0 0 -8 -12 -18 -18 -14 -19 -19 -7 -19 9 0 14 4 11 9
-5 7 8 12 27 10 3 -1 6 5 6 13 0 8 -4 12 -9 9 -14 -9 -9 14 7 30 9 8 15 18 15
21 -1 4 1 9 3 12 8 7 3 -19 -7 -37 -4 -8 2 -4 14 9 11 13 19 30 16 38 -3 7 0
12 7 10 7 -1 11 7 9 18 -2 15 -1 17 6 6 6 -7 15 -10 21 -7 15 9 14 36 -1 36
-6 0 -9 3 -5 6 3 3 20 -1 37 -10 22 -11 29 -11 21 -2 -6 7 -7 17 -3 21 4 5 2
6 -3 2 -6 -3 -17 -1 -25 4 -12 8 -11 9 5 7 11 -2 19 2 18 8 -1 8 6 10 20 7 22
-5 22 -5 2 11 -19 15 -19 16 8 6 22 -8 26 -7 20 3 -16 26 -11 37 14 33 19 -4
22 -2 14 8 -14 16 16 45 42 41 10 -2 16 2 14 8 -2 7 -13 11 -23 10 -10 -1 -13
0 -6 3 6 3 10 10 6 15 -3 5 5 5 19 0 21 -8 25 -7 22 7 -1 9 6 29 16 43 10 14
15 30 11 35 -4 5 2 1 14 -9 25 -21 43 -7 39 31 -1 14 3 21 10 18 6 -2 17 5 24
16 11 17 15 18 23 7 8 -12 9 -11 5 1 -2 8 -10 14 -16 12 -20 -4 -12 14 12 24
12 6 16 9 9 7 -7 -1 -10 2 -7 7 3 6 1 10 -4 10 -6 0 1 14 16 31 16 17 27 36
25 41 -1 5 3 19 10 31 16 28 17 39 4 56 -8 11 -8 13 1 8 6 -4 14 -1 17 5 3 7
3 1 1 -14 -2 -16 1 -28 6 -28 5 0 9 6 8 13 -4 31 2 48 14 41 9 -5 9 -4 0 6 -9
10 -8 20 4 44 21 40 24 54 11 63 -7 3 -8 1 -4 -5 4 -7 5 -12 2 -12 -3 0 -10 9
-16 20 -8 15 -8 18 3 14 8 -3 19 2 26 10 10 12 8 14 -11 10 -21 -5 -20 -3 5
11 31 18 35 27 10 23 -12 -2 -18 4 -18 17 0 14 7 20 23 21 12 1 26 5 30 9 4 5
0 6 -8 3 -8 -3 -24 4 -35 15 -20 20 -20 20 2 8 30 -15 42 -13 19 4 -10 8 -15
19 -10 26 5 9 11 7 22 -7 13 -18 14 -18 7 5 -5 18 -4 22 5 16 9 -5 11 -4 6 4
-4 6 -13 8 -19 5 -7 -4 -9 -4 -5 1 4 4 2 15 -5 23 -10 13 -9 14 9 4 12 -6 26
-7 35 -1 10 6 11 9 1 9 -7 0 -10 4 -7 10 3 5 1 10 -4 10 -6 0 -11 -5 -11 -11
0 -5 -5 -7 -11 -3 -8 5 -8 9 1 14 7 4 10 12 6 18 -3 6 -2 13 3 17 5 3 8 15 6
26 -4 17 -2 19 10 9 10 -8 15 -9 15 -2 0 6 -5 14 -10 17 -7 4 -7 11 -2 18 5 7
8 23 6 37 -3 18 -1 21 5 11 5 -8 8 -23 6 -33 -2 -10 0 -16 6 -13 5 4 7 11 4
16 -4 5 0 9 7 9 9 0 9 3 -2 10 -8 5 -11 10 -6 10 5 0 1 9 -9 20 -10 11 -15 23
-12 27 4 3 7 0 7 -7 0 -9 5 -7 14 5 8 11 12 23 10 27 -2 4 0 9 5 12 12 8 8
-13 -7 -41 -8 -15 -9 -23 -2 -23 5 0 10 7 10 16 0 9 5 12 12 8 7 -4 8 -3 4 4
-4 7 -1 12 6 12 10 0 10 2 0 9 -16 10 -16 19 4 49 8 12 12 22 9 22 -3 0 -1 9
4 19 14 25 -9 47 -29 28 -12 -10 -12 -9 -1 5 7 10 18 15 24 11 6 -4 8 0 4 10
-6 15 3 22 25 18 4 0 5 6 1 15 -4 11 -9 12 -16 5 -6 -6 -16 -11 -21 -11 -6 0
-3 5 7 11 15 9 16 13 5 27 -12 16 -11 16 6 2 18 -14 19 -13 13 2 -5 13 -1 16
21 12 18 -3 23 -2 13 5 -9 6 -10 11 -2 15 6 4 8 12 5 18 -5 8 -1 9 10 5 9 -4
14 -3 11 2 -3 5 -1 12 4 16 5 3 8 14 6 25 -2 11 1 23 7 26 7 4 8 2 4 -4 -4 -7
-1 -12 8 -12 8 0 18 5 22 12 4 7 3 8 -4 4 -7 -4 -12 -2 -12 5 0 6 8 9 20 6 11
-3 23 0 27 5 3 7 1 8 -5 4 -8 -5 -11 -1 -9 11 5 33 17 44 36 34 13 -7 18 -6
18 4 0 8 -4 12 -8 9 -4 -2 -11 1 -15 7 -4 8 -3 9 4 5 7 -4 12 -2 12 4 0 6 4 9
10 5 5 -3 20 5 32 17 13 13 27 22 31 20 5 -1 5 3 2 9 -5 8 -10 8 -18 0 -6 -6
-16 -11 -21 -11 -6 0 0 7 12 16 12 8 27 12 34 8 7 -4 8 -3 4 4 -6 11 5 16 26
13 9 -1 4 27 -7 36 -4 4 -5 3 -1 -4 3 -6 2 -14 -3 -17 -5 -4 -8 1 -7 11 2 9
12 18 24 20 16 2 20 -1 15 -15 -4 -14 -3 -13 10 3 17 22 12 39 -10 31 -8 -3
-11 -1 -8 4 3 5 19 8 34 6 21 -2 28 1 27 13 -1 11 6 15 19 13 15 -2 17 -1 6 7
-16 10 -41 4 -41 -10 0 -5 -5 -9 -12 -9 -13 0 49 64 63 66 5 1 14 2 20 3 5 0
8 5 4 10 -3 5 4 12 15 16 11 3 20 11 20 16 0 6 -7 6 -19 -1 -35 -18 -37 -10
-2 11 18 11 40 18 47 15 12 -4 12 -1 4 15 -6 11 -16 16 -22 13 -7 -4 -8 -2 -4
5 6 9 11 9 21 1 9 -8 15 -8 20 0 3 5 1 10 -6 10 -7 0 -9 3 -6 6 4 4 14 1 24
-7 14 -12 16 -12 8 0 -6 11 -4 13 7 9 8 -4 15 0 15 8 0 7 -4 11 -9 8 -4 -3 -8
0 -8 7 0 6 8 9 19 6 12 -3 22 1 25 10 3 8 2 12 -2 9 -5 -3 -9 1 -9 9 0 11 5
12 21 3 20 -11 20 -10 6 7 -14 17 -13 18 2 12 20 -7 34 8 17 19 -8 5 -9 3 -4
-6 6 -9 4 -11 -4 -6 -7 5 -9 11 -6 15 6 6 10 7 36 10 5 0 7 6 4 11 -3 6 -2 10
4 10 5 0 11 -6 14 -12 3 -7 4 -3 4 9 -1 12 -4 20 -8 17 -4 -2 -10 0 -13 5 -4
5 2 8 11 6 10 -2 22 -4 26 -4 5 -1 5 -5 2 -11 -4 -6 1 -7 11 -3 15 5 15 7 0
15 -19 11 -21 29 -2 22 7 -3 16 2 20 11 3 9 11 13 17 9 8 -4 9 -3 5 5 -4 6
-13 8 -19 5 -9 -5 -9 -3 0 6 8 8 17 10 26 4 7 -5 4 -1 -8 10 l-20 19 22 -7
c13 -4 24 -2 29 5 5 8 2 10 -7 5 -8 -4 -4 1 8 12 12 11 20 22 18 26 -3 3 -2 4
1 2 3 -2 14 4 25 15 11 11 23 18 28 15 4 -3 8 1 8 9 0 12 -4 12 -16 3 -11 -8
-10 -5 2 8 15 16 19 17 28 4 7 -11 8 -8 5 12 -4 26 -3 27 16 17 16 -9 19 -8
12 3 -16 25 -12 35 12 32 13 -1 29 5 36 14 11 15 11 15 -3 4 -14 -10 -18 -10
-23 5 -4 10 -4 14 0 10 4 -3 19 2 34 13 15 11 30 16 34 13 4 -4 4 1 0 11 -6
15 -4 17 6 11 9 -6 11 -4 5 5 -6 10 -4 12 8 7 11 -4 14 -2 10 9 -4 10 0 13 13
8 12 -3 9 1 -6 11 l-25 15 24 -2 c15 -2 28 4 35 17 6 11 15 23 20 26 5 4 6 15
2 25 -5 17 -4 17 10 -1 16 -20 16 -20 11 2 -6 26 10 42 46 45 14 1 24 6 21 10
-2 4 -13 5 -24 3 -12 -2 -18 0 -15 5 3 4 16 7 30 6 13 -2 22 0 20 5 -7 11 5
39 17 39 6 0 6 -6 -1 -14 -9 -11 -9 -16 0 -22 7 -4 9 -3 6 3 -4 6 0 16 8 23
12 10 13 16 4 27 -10 11 -9 12 5 7 13 -5 15 -2 9 12 -6 16 -4 17 9 7 12 -11
19 -9 36 10 20 21 22 25 22 47 0 6 5 10 11 10 5 0 7 -6 3 -12 -4 -8 -3 -10 2
-5 9 9 11 14 13 47 0 11 5 20 11 20 5 0 9 -3 9 -7 -1 -5 -1 -15 0 -23 1 -13 3
-13 10 -1 6 9 6 22 0 32 -12 23 -11 29 2 29 5 0 8 -4 4 -9 -3 -6 4 -9 14 -8
18 1 19 3 6 17 -8 9 -12 19 -9 23 9 9 35 -4 28 -14 -3 -5 3 -6 12 -2 11 4 13
8 6 11 -15 5 -16 32 -1 32 5 0 7 -5 3 -12 -4 -6 -3 -8 4 -5 5 4 8 17 6 30 -2
12 -2 16 2 10 7 -15 30 -17 39 -3 3 5 0 7 -8 4 -8 -3 -17 2 -20 10 -4 11 -1
13 10 9 10 -4 14 -2 10 4 -4 6 0 16 7 22 10 8 16 9 21 1 3 -6 11 -7 17 -4 7 5
4 12 -8 22 -17 13 -17 14 -1 9 13 -5 17 -2 15 9 -2 11 5 18 20 20 16 3 21 0
16 -8 -4 -8 -3 -10 2 -5 5 5 9 14 9 20 1 7 7 11 14 9 7 -1 10 2 6 8 -5 8 -11
8 -20 0 -10 -8 -15 -8 -21 1 -4 7 -3 9 4 5 6 -3 13 -2 17 4 3 5 15 10 26 10
10 0 19 5 19 11 0 5 -4 8 -9 5 -5 -3 -15 2 -22 12 -12 15 -12 16 2 5 12 -10
18 -9 31 7 9 10 16 20 15 22 -1 2 4 -3 11 -11 8 -11 12 -11 12 -2 0 7 5 9 12
5 7 -4 8 -3 4 5 -4 6 -12 9 -17 6 -5 -4 -9 -1 -9 6 0 6 8 9 20 6 11 -3 17 -1
14 4 -3 5 1 12 10 15 8 3 12 12 9 20 -3 8 -10 11 -16 7 -6 -3 -7 -1 -3 5 5 8
13 9 25 3 13 -7 20 -5 29 10 7 11 17 17 22 14 6 -3 7 1 4 10 -6 14 -8 14 -18
0 -8 -11 -15 -12 -26 -4 -13 9 -13 10 0 6 8 -2 25 9 37 26 19 25 22 26 20 9 0
-11 -5 -18 -11 -15 -5 3 -6 1 -2 -6 4 -6 12 -9 17 -5 5 3 7 10 4 15 -4 5 -1 9
5 9 6 0 8 4 5 10 -10 17 25 59 43 53 15 -6 16 -5 2 12 -14 17 -14 18 9 6 15
-8 21 -9 17 -2 -7 10 6 16 27 12 5 -1 6 3 2 9 -3 6 -12 7 -18 3 -7 -4 -7 0 1
10 8 9 10 22 6 29 -6 11 -5 11 8 0 10 -8 19 -9 22 -3 3 5 0 12 -6 15 -7 4 -3
4 8 2 12 -2 28 0 35 5 12 7 12 10 0 21 -9 8 -11 9 -7 1 3 -6 2 -14 -3 -17 -5
-4 -8 0 -7 6 3 25 17 37 34 31 15 -6 16 -5 2 12 -15 19 -15 19 15 1 l30 -19
-20 23 -20 23 25 -13 c21 -10 23 -10 13 1 -18 19 -16 29 6 29 23 0 36 16 21
25 -6 4 -7 11 -4 17 5 7 12 4 22 -8 13 -16 14 -17 9 -1 -4 9 -3 17 2 17 4 0
20 11 36 24 20 17 24 26 15 31 -9 6 -11 4 -5 -6 5 -8 5 -11 0 -7 -4 4 -13 0
-20 -9 -7 -9 -20 -18 -30 -19 -9 -1 -14 1 -10 4 4 4 11 7 16 7 5 0 10 5 10 10
3 16 42 40 64 38 11 -2 14 0 8 3 -7 3 -13 13 -13 22 0 15 2 15 10 2 8 -13 10
-12 10 3 0 9 5 17 11 17 5 0 7 -4 4 -10 -3 -6 1 -7 10 -3 13 4 14 7 3 14 -11
7 -10 10 1 21 10 10 12 10 7 1 -4 -7 -2 -13 5 -13 6 0 9 8 6 20 -3 10 1 24 9
31 8 6 11 16 7 22 -3 6 -1 7 5 3 6 -3 16 3 22 14 9 17 14 19 25 10 11 -10 13
-8 10 8 -2 15 1 19 14 15 11 -3 21 2 24 11 4 11 1 13 -11 10 -15 -5 -15 -4 1
6 9 6 21 8 27 5 5 -3 7 3 5 14 -3 15 0 18 13 14 15 -6 15 -4 4 9 -10 13 -10
18 -1 24 7 4 9 3 6 -3 -7 -11 22 -28 31 -18 3 3 -1 5 -9 5 -8 1 -3 7 11 15 14
8 20 14 14 15 -7 0 -15 7 -18 16 -5 14 -4 15 9 4 13 -10 15 -9 15 8 0 12 5 24
12 28 6 4 8 3 5 -3 -4 -6 0 -13 8 -16 11 -5 12 -1 5 18 -6 16 -6 27 2 31 7 4
8 3 4 -4 -6 -10 9 -11 42 -3 1 1 -2 9 -7 20 -14 24 -3 33 23 19 11 -6 18 -7
14 -3 -4 4 3 16 15 26 19 16 20 20 7 28 -8 6 -11 13 -7 17 3 4 13 1 21 -5 9
-8 16 -8 20 -2 4 5 2 13 -4 16 -15 9 9 37 27 31 7 -3 13 -1 13 5 0 6 5 7 10 4
6 -3 10 -1 10 5 0 7 -9 9 -22 5 -18 -6 -16 -2 9 17 18 14 29 29 25 34 -4 4 0
3 9 -4 13 -10 19 -9 29 3 7 8 16 13 20 10 4 -3 7 3 6 13 0 10 5 16 13 14 12
-3 12 0 1 12 -7 9 -9 16 -4 16 5 0 2 5 -6 10 -9 6 -10 10 -3 10 7 0 17 -8 22
-17 14 -23 14 -7 1 17 -8 16 -7 18 4 14 8 -3 17 -13 20 -22 2 -10 3 -3 1 15
-2 24 0 30 11 26 8 -3 14 1 14 11 0 9 5 16 11 16 5 0 7 6 3 13 -6 10 -4 10 7
0 7 -7 18 -13 23 -13 7 0 8 3 1 8 -25 18 -36 40 -24 48 7 4 9 3 6 -3 -4 -6 -1
-16 7 -22 17 -14 41 11 32 34 -4 12 -2 13 13 6 16 -9 17 -7 13 14 -2 15 0 25
7 25 7 0 9 -6 6 -12 -4 -7 6 1 22 18 16 16 36 28 44 26 12 -3 12 -2 -1 7 -8 5
-18 7 -24 4 -5 -4 -6 -1 -2 6 5 7 14 10 22 7 8 -3 17 1 21 9 4 13 8 13 22 3
14 -12 15 -11 2 5 -14 17 -16 18 -27 2 -8 -10 -14 -12 -19 -6 -3 6 -1 11 5 11
6 0 9 4 6 9 -4 5 5 8 19 7 37 -5 71 38 43 55 -9 6 -5 9 14 9 20 0 26 4 22 15
-4 8 -11 12 -17 8 -6 -3 -7 -1 -3 5 5 9 13 9 29 0 21 -10 21 -10 7 7 -14 17
-14 18 10 5 24 -13 24 -12 10 5 -14 17 -13 18 2 12 13 -4 15 -2 11 10 -5 13
-2 15 11 10 9 -4 15 -3 11 2 -3 5 6 18 20 29 15 12 21 23 15 27 -5 3 -10 12
-9 18 0 9 2 9 6 0 2 -7 12 -13 21 -13 15 0 15 2 2 10 -11 7 -11 10 -2 10 7 0
11 4 7 9 -3 5 0 13 6 17 8 4 9 3 5 -4 -4 -7 -2 -12 5 -12 6 0 9 8 7 18 -3 11
0 19 8 19 7 0 11 -4 8 -9 -3 -4 2 -5 10 -2 9 3 16 10 16 16 0 5 -4 7 -9 3 -6
-3 -9 3 -8 14 1 15 4 17 14 9 10 -8 12 -7 8 4 -3 8 2 21 12 29 16 13 17 12 4
-4 -12 -15 -12 -17 3 -11 19 7 22 34 4 34 -9 0 -8 4 2 10 20 13 39 12 20 -1
-13 -9 -13 -10 0 -6 8 2 14 11 12 20 -2 11 2 15 12 11 18 -7 31 12 15 22 -8 5
-9 3 -4 -6 5 -9 4 -11 -4 -6 -9 6 -9 11 -1 21 7 8 9 20 5 27 -4 7 2 3 12 -10
10 -13 22 -20 26 -16 4 4 2 12 -3 19 -7 8 -1 19 17 36 15 13 21 16 14 7 -10
-13 -10 -18 -2 -18 7 0 9 -5 5 -12 -4 -7 -3 -10 1 -5 15 13 13 52 -4 65 -14
11 -13 12 6 3 31 -15 38 -14 22 6 -13 15 -12 15 9 4 12 -6 23 -9 23 -6 1 3 3
10 4 15 1 6 3 15 4 21 0 5 6 7 12 3 7 -4 6 2 -1 17 l-13 23 29 -18 29 -19 -19
22 c-15 16 -16 20 -5 16 9 -3 22 1 29 9 7 9 17 13 23 9 6 -3 7 -1 3 6 -4 6
-13 9 -19 5 -7 -3 -4 1 5 9 10 8 14 18 10 22 -4 5 -1 5 6 1 19 -11 40 11 36
39 -1 14 2 23 7 19 5 -3 9 0 9 6 0 6 5 8 11 5 6 -5 4 -11 -7 -19 -13 -10 -14
-15 -4 -21 8 -5 11 -4 7 2 -4 6 0 14 8 17 12 4 13 10 6 24 -8 16 -6 18 18 16
24 -2 27 1 23 22 -2 13 0 24 7 24 5 0 8 -8 5 -17 -5 -15 -4 -15 4 -3 7 9 8 18
1 26 -7 9 -5 11 9 8 10 -3 25 2 33 12 13 16 12 16 -8 6 -12 -7 -24 -8 -27 -3
-8 13 4 20 22 14 9 -4 13 -2 9 4 -5 7 0 9 13 6 11 -3 20 0 20 6 0 6 -3 10 -7
9 -5 -2 -9 0 -10 5 -2 4 -2 6 0 5 2 -2 11 5 21 15 10 9 22 15 27 12 5 -4 6 1
2 10 -5 13 -7 14 -14 3 -5 -7 -9 -8 -9 -2 0 19 13 24 28 11 9 -6 13 -7 10 -2
-4 6 -3 17 2 25 5 8 5 19 0 25 -7 8 -5 12 5 12 8 0 12 -4 10 -8 -3 -3 3 -13
13 -20 15 -13 16 -12 3 4 -11 14 -11 17 0 17 8 1 3 7 -11 15 -14 8 -19 14 -12
15 7 0 11 4 8 8 -3 5 4 8 16 8 12 -1 23 6 26 14 4 12 3 13 -10 3 -12 -10 -15
-10 -15 2 0 7 5 13 11 12 5 -1 10 3 11 8 0 6 4 15 8 22 4 6 6 17 4 25 -2 7 -2
10 0 6 7 -11 31 -10 38 2 3 6 -1 7 -9 4 -19 -7 -20 0 -6 26 7 13 7 21 -1 26
-8 5 -8 8 0 14 9 5 9 14 1 34 -6 17 -6 25 0 21 6 -3 10 -12 10 -20 0 -13 29
-29 38 -20 3 3 1 5 -5 5 -6 0 -13 9 -16 20 -6 23 3 26 23 8 12 -11 12 -10 1 4
-10 13 -9 18 5 26 11 6 13 11 5 16 -6 4 -11 2 -11 -3 0 -6 -7 -11 -15 -11 -8
0 -15 5 -15 11 0 5 4 8 9 5 5 -3 9 5 9 19 0 14 -4 23 -7 21 -4 -3 -8 4 -8 15
-2 18 0 18 18 -3 l20 -23 -16 33 c-8 17 -13 32 -10 32 3 0 1 10 -6 21 -7 13
-7 19 -1 15 6 -3 14 -1 18 5 4 8 9 7 16 -2 8 -11 9 -11 5 1 -2 8 -14 14 -26
14 -14 -1 -19 2 -13 10 11 14 8 71 -4 89 -5 7 -1 5 8 -6 9 -10 15 -26 12 -35
-5 -14 -4 -14 4 -3 7 10 7 21 1 33 -5 10 -6 18 -2 18 4 0 0 5 -9 11 -22 12
-23 23 -2 43 8 9 11 16 5 16 -5 0 -13 -5 -17 -11 -6 -11 -24 9 -25 28 0 5 -8
17 -17 27 -9 11 -11 16 -4 12 8 -5 11 -1 8 16 -3 13 -5 23 -6 23 -1 0 -3 8 -5
18 -2 9 1 15 6 11 5 -3 7 -9 5 -13 -3 -3 4 -7 15 -7 19 0 19 1 2 14 -15 11
-16 14 -3 22 12 8 12 10 1 10 -9 0 -12 8 -9 25 3 13 2 23 -1 20 -9 -5 -36 12
-37 25 -1 5 -2 15 -3 21 0 5 -5 8 -10 4 -5 -3 -12 -1 -16 4 -3 6 3 8 15 6 11
-2 23 1 26 7 4 7 2 8 -4 4 -15 -9 -16 6 -1 21 8 8 7 13 -2 18 -7 5 -10 4 -6
-2 8 -12 -20 -39 -30 -29 -3 3 -1 6 6 6 7 0 9 5 6 10 -4 6 -11 7 -17 4 -7 -4
-8 -2 -4 5 4 6 11 9 15 7 3 -3 7 4 7 14 0 14 -3 16 -13 8 -8 -6 -16 -8 -20 -4
-3 3 -2 6 3 6 12 0 12 50 -1 51 -5 1 -17 1 -25 0 -13 -2 -13 -1 0 8 12 9 12
11 1 11 -10 0 -11 3 -2 14 9 11 9 16 0 22 -7 4 -9 3 -6 -3 3 -5 0 -10 -7 -10
-15 0 -15 21 -1 34 4 4 6 3 2 -2 -3 -6 3 -11 14 -11 19 0 20 1 2 14 -10 7 -17
18 -15 24 2 6 -7 17 -18 25 -15 11 -19 21 -14 36 6 21 6 21 -8 3 -10 -12 -17
-15 -22 -8 -3 6 1 18 10 26 8 9 11 16 5 16 -5 0 -12 -4 -16 -10 -3 -5 -13 -6
-21 -3 -14 5 -13 8 6 18 19 10 20 13 6 18 -12 5 -15 3 -10 -6 6 -8 3 -8 -8 1
-9 8 -14 20 -11 28 3 8 0 14 -7 14 -7 0 -10 7 -6 16 3 8 2 12 -3 9 -5 -3 -12
-1 -16 5 -4 6 -11 8 -16 5 -5 -3 -6 2 -2 11 4 10 2 15 -3 12 -5 -4 -9 9 -8 29
2 25 -1 32 -9 24 -17 -17 -29 -13 -22 8 7 22 -18 46 -39 38 -10 -4 -13 -1 -9
8 3 8 9 12 14 9 5 -3 6 2 3 11 -5 13 -9 12 -25 -6 -18 -20 -18 -20 -16 -1 0
12 4 19 8 16 4 -2 5 5 2 16 -3 11 -10 23 -16 27 -6 3 -7 1 -3 -5 4 -7 2 -20
-4 -29 -7 -12 -10 -13 -7 -3 6 23 -12 52 -29 46 -9 -3 -12 -1 -9 4 3 6 1 10
-4 10 -6 0 -11 5 -11 12 0 9 3 9 12 0 7 -7 17 -12 22 -12 11 0 -21 25 -39 31
-20 7 -44 33 -38 42 3 5 0 7 -8 5 -8 -3 -13 -11 -11 -17 1 -7 -2 -9 -8 -6 -8
5 -5 14 7 28 10 11 13 17 6 14 -6 -4 -16 0 -21 9 -11 19 -22 20 -34 2 -5 -8
-7 -4 -4 15 4 21 0 29 -17 38 -21 10 -21 10 -3 -5 25 -20 8 -20 -18 -1 -10 8
-23 12 -27 9 -5 -3 -6 2 -3 10 3 9 10 16 16 16 5 0 6 -4 3 -10 -4 -6 1 -7 11
-3 15 5 15 7 0 15 -9 5 -21 6 -26 3 -6 -3 -13 1 -16 9 -3 9 -10 16 -15 16 -6
0 -5 -10 1 -22 11 -22 10 -22 -4 -4 -9 10 -13 23 -9 29 3 5 -4 6 -18 2 -22 -7
-23 -6 -6 7 18 13 17 15 -4 33 -12 11 -19 15 -16 8 5 -8 0 -11 -14 -10 -24 2
-72 54 -63 68 3 5 0 8 -8 7 -7 -2 -12 2 -11 8 1 6 -4 11 -12 11 -8 0 -12 -4
-9 -9 3 -4 1 -8 -5 -8 -5 0 -11 4 -13 9 -1 5 -9 11 -17 13 -18 4 -66 51 -63
61 1 5 -2 6 -7 3 -5 -4 -12 -2 -16 4 -4 6 -10 8 -15 5 -4 -3 -13 2 -20 10 -7
8 -16 12 -21 10 -4 -3 -12 3 -18 12 -5 10 -13 15 -17 11 -4 -5 -14 -3 -21 4
-14 11 -22 13 -90 19 -17 2 -30 6 -27 11 3 4 12 5 22 2 14 -5 14 -4 3 4 -8 6
-21 8 -29 4 -11 -4 -13 -1 -7 9 4 8 4 11 0 6 -5 -4 -20 3 -34 15 -14 13 -20
16 -13 7 10 -14 9 -17 -8 -22 -11 -3 -23 0 -27 5 -3 7 -1 8 5 4 7 -4 12 -2 12
3 0 6 -5 11 -11 11 -5 0 -7 6 -4 13 4 6 0 3 -9 -7 -8 -10 -13 -23 -10 -27 3
-5 0 -9 -7 -9 -6 0 -9 8 -6 20 3 10 -1 24 -9 31 -8 6 -14 8 -14 4 0 -4 -6 -2
-13 4 -10 8 -14 7 -14 -4 0 -8 5 -11 11 -8 6 3 8 2 3 -2 -12 -13 -47 -16 -47
-4 0 5 5 7 10 4 6 -3 10 1 10 9 0 10 -6 13 -15 10 -11 -5 -14 -2 -9 12 4 11 4
16 0 12 -7 -6 -13 -27 -15 -53 -1 -5 -5 -3 -10 5 -6 8 -7 18 -5 22 3 4 0 8 -5
8 -6 0 -11 -6 -11 -12 0 -9 -3 -9 -9 1 -12 19 -41 23 -41 5 0 -8 -4 -14 -8
-14 -5 0 -9 7 -9 15 0 13 9 19 28 17 3 -1 6 6 6 14 0 8 -4 14 -9 14 -4 0 -8
-4 -8 -10 0 -5 -14 -10 -31 -10 -16 0 -28 -4 -25 -8 3 -5 -1 -9 -9 -9 -8 0
-15 5 -15 11 0 6 -5 4 -11 -4 -9 -12 -10 -11 -4 5 3 11 7 24 8 29 3 17 -112
14 -126 -3 -10 -12 -9 -14 8 -7 30 12 58 13 79 3 14 -7 16 -6 11 4 -5 8 -4 10
4 5 9 -6 9 -12 -1 -24 -20 -27 -22 -28 -15 -9 4 9 4 17 0 17 -3 0 -12 -8 -20
-17 -14 -17 -14 -17 -9 0 3 9 3 17 -1 17 -3 0 -12 -8 -19 -17 -13 -17 -14 -17
-8 0 3 9 1 17 -5 17 -6 0 -11 -5 -11 -11 0 -5 -4 -7 -10 -4 -5 3 -10 1 -10 -4
0 -6 -5 -11 -11 -11 -8 0 -8 5 1 15 17 20 -4 20 -24 0 -13 -13 -15 -13 -22 7
-5 13 -7 26 -7 29 4 15 -29 4 -38 -13z m27 -6 c-3 -3 0 -12 7 -20 10 -13 9
-14 -10 -2 -11 8 -19 19 -16 27 3 7 9 10 15 7 5 -3 7 -9 4 -12z m-62 -30 c3
-5 -1 -9 -9 -9 -8 0 -12 4 -9 9 3 4 7 8 9 8 2 0 6 -4 9 -8z m56 -6 c0 -3 -4
-8 -10 -11 -5 -3 -10 -1 -10 4 0 6 5 11 10 11 6 0 10 -2 10 -4z m472 -34 c-7
-2 -9 -9 -6 -14 4 -7 2 -8 -4 -4 -6 4 -9 13 -6 21 4 8 11 12 17 8 8 -5 7 -8
-1 -11z m104 -47 c1 -8 -2 -15 -6 -15 -5 0 -8 9 -7 20 1 21 10 18 13 -5z m144
-47 c11 -22 10 -22 -4 -4 -9 11 -16 14 -16 7 0 -7 -5 -9 -11 -5 -8 4 -7 9 2
15 18 11 17 12 29 -13z m60 -23 c0 4 9 0 21 -11 12 -10 24 -18 27 -16 4 2 8
-1 10 -7 5 -16 -14 -13 -28 4 -7 8 -16 13 -20 10 -5 -3 -12 -1 -15 5 -5 8 -11
7 -21 -1 -10 -8 -14 -8 -14 0 0 6 5 11 11 11 8 0 7 6 -2 18 -11 14 -10 13 9
-2 12 -11 22 -15 22 -11z m-1230 -55 c0 -5 -5 -10 -11 -10 -5 0 -7 5 -4 10 3
6 8 10 11 10 2 0 4 -4 4 -10z m1340 -15 c0 -2 -6 -7 -12 -11 -7 -4 -10 -4 -6
1 4 4 0 14 -10 22 -15 13 -15 13 6 3 12 -6 22 -13 22 -15z m90 -55 c8 -15 8
-18 -3 -14 -8 3 -14 11 -14 19 0 20 4 19 17 -5z m-1535 -20 c-3 -5 -1 -10 6
-10 7 0 10 -3 6 -6 -9 -9 -28 6 -22 17 4 5 8 9 11 9 3 0 2 -4 -1 -10z m1650
-50 c3 -5 -1 -10 -10 -10 -9 0 -13 5 -10 10 3 6 8 10 10 10 2 0 7 -4 10 -10z
m165 -160 c0 -5 -2 -10 -4 -10 -3 0 -8 5 -11 10 -3 6 -1 10 4 10 6 0 11 -4 11
-10z m-2075 -80 c-3 -5 -12 -10 -18 -10 -7 0 -6 4 3 10 19 12 23 12 15 0z
m2187 -62 c-7 -7 -12 -8 -12 -2 0 14 12 26 19 19 2 -3 -1 -11 -7 -17z m108
-79 c0 -5 -4 -9 -10 -9 -5 0 -10 7 -10 16 0 8 5 12 10 9 6 -3 10 -10 10 -16z
m27 -51 c-3 -8 -6 -5 -6 6 -1 11 2 17 5 13 3 -3 4 -12 1 -19z m-2714 -143 c-3
-9 -8 -14 -10 -11 -3 3 -2 9 2 15 9 16 15 13 8 -4z m2863 -77 l19 -21 -27 18
c-29 18 -34 25 -20 25 5 0 17 -10 28 -22z m-3000 -70 c4 -6 3 -8 -4 -4 -6 3
-18 -1 -26 -10 -9 -8 -16 -11 -16 -5 0 5 8 15 18 20 21 13 20 13 28 -1z m-146
-118 c0 -5 -5 -10 -11 -10 -5 0 -7 5 -4 10 3 6 8 10 11 10 2 0 4 -4 4 -10z
m3280 -140 c0 -5 -5 -10 -11 -10 -5 0 -7 5 -4 10 3 6 8 10 11 10 2 0 4 -4 4
-10z m-3623 -195 c0 -8 -4 -12 -9 -9 -5 3 -6 10 -3 15 9 13 12 11 12 -6z
m-267 -281 c0 -8 -19 -13 -24 -6 -3 5 1 9 9 9 8 0 15 -2 15 -3z m-44 -36 c4
-7 3 -8 -4 -4 -7 4 -12 2 -12 -5 0 -7 -3 -10 -6 -6 -6 5 3 27 11 27 2 0 7 -5
11 -12z m3944 -108 c0 -5 -2 -10 -4 -10 -3 0 -8 5 -11 10 -3 6 -1 10 4 10 6 0
11 -4 11 -10z m-4275 -220 c-3 -5 -12 -10 -18 -10 -7 0 -6 4 3 10 19 12 23 12
15 0z m3975 -254 c0 -3 -4 -8 -10 -11 -5 -3 -10 -1 -10 4 0 6 5 11 10 11 6 0
10 -2 10 -4z m-60 -60 c0 -3 -4 -8 -10 -11 -5 -3 -10 -1 -10 4 0 6 5 11 10 11
6 0 10 -2 10 -4z m-386 -425 c3 -4 -3 -16 -13 -25 -14 -13 -18 -14 -18 -2 0 8
5 14 11 13 6 -1 10 4 9 11 -3 14 3 16 11 3z m-4440 -147 c3 -8 2 -12 -4 -9 -6
3 -10 10 -10 16 0 14 7 11 14 -7z m-24 -17 c0 -8 -3 -7 -9 2 -7 11 -10 9 -16
-8 -4 -13 -9 -20 -12 -18 -2 3 0 15 7 26 11 22 30 20 30 -2z m4334 4 c3 -5 -1
-14 -8 -20 -10 -9 -16 -9 -21 -1 -4 6 -1 9 7 8 7 -2 12 3 11 10 -3 14 3 16 11
3z m-100 -113 c-3 -4 -11 -8 -17 -7 -9 0 -9 2 0 5 7 3 9 13 6 22 -4 14 -3 14
5 2 6 -8 8 -18 6 -22z m-81 -83 c-7 -21 -12 -19 -10 4 0 11 5 18 9 15 4 -3 5
-11 1 -19z m-4363 -5 c0 -5 -5 -10 -11 -10 -5 0 -7 5 -4 10 3 6 8 10 11 10 2
0 4 -4 4 -10z m4220 -161 c-24 -33 -36 -39 -21 -10 6 10 7 22 3 26 -4 3 0 5 8
3 8 -2 14 3 12 10 -1 8 2 11 8 7 7 -4 3 -17 -10 -36z m-4400 -43 c0 -2 -37 0
-48 3 -2 1 0 6 3 11 5 9 45 -3 45 -14z m4244 -128 c-4 -6 -10 -5 -15 3 -8 13
-13 5 -10 -14 1 -5 -3 -6 -9 -2 -8 5 -8 11 0 20 13 15 43 9 34 -7z m-4447 -35
c0 -16 -2 -22 -4 -15 -4 10 -8 10 -19 1 -8 -6 -12 -14 -10 -18 3 -4 -4 -7 -14
-8 -16 -1 -14 4 13 32 18 18 33 34 33 34 1 1 1 -11 1 -26z m4384 -20 c13 -16
12 -17 -3 -4 -10 7 -18 15 -18 17 0 8 8 3 21 -13z m-4481 -87 c0 -3 -4 -8 -10
-11 -5 -3 -10 -1 -10 4 0 6 5 11 10 11 6 0 10 -2 10 -4z m4395 -6 c3 -5 1 -10
-4 -10 -6 0 -11 5 -11 10 0 6 2 10 4 10 3 0 8 -4 11 -10z m-4555 -140 c0 -5
-2 -10 -4 -10 -3 0 -8 5 -11 10 -3 6 -1 10 4 10 6 0 11 -4 11 -10z m4333 -75
c-3 -9 -8 -14 -10 -11 -3 3 -2 9 2 15 9 16 15 13 8 -4z m-4693 -141 c0 -8 -19
-13 -24 -6 -3 5 1 9 9 9 8 0 15 -2 15 -3z m-134 -17 c4 -3 -3 -4 -16 -2 -15 3
-20 0 -17 -9 3 -7 -1 -13 -8 -13 -10 0 -11 5 -5 18 9 17 32 20 46 6z m-106
-41 c0 -2 -7 -7 -16 -10 -8 -3 -12 -2 -9 4 6 10 25 14 25 6z m-120 -26 c0 -5
-5 -10 -11 -10 -5 0 -7 5 -4 10 3 6 8 10 11 10 2 0 4 -4 4 -10z m-416 -133
c-2 -7 -15 -13 -27 -14 -21 -2 -21 -1 3 12 31 18 30 18 24 2z m-104 -91 c0 -3
-4 -8 -10 -11 -5 -3 -10 -1 -10 4 0 6 5 11 10 11 6 0 10 -2 10 -4z m-303 -261
c0 -8 -4 -12 -9 -9 -5 3 -6 10 -3 15 9 13 12 11 12 -6z m-70 -77 c2 -17 0 -19
-7 -8 -5 8 -6 18 -4 22 8 12 10 10 11 -14z m5073 -178 c0 -5 -5 -10 -11 -10
-5 0 -7 5 -4 10 3 6 8 10 11 10 2 0 4 -4 4 -10z m-5296 -15 c-4 -8 -11 -15
-16 -15 -6 0 -5 6 2 15 7 8 14 15 16 15 2 0 1 -7 -2 -15z m5269 -25 c4 0 6 4
3 8 -3 5 1 9 9 9 13 0 12 -4 -2 -19 -9 -10 -17 -17 -17 -16 -1 2 -8 12 -16 23
-12 17 -12 18 0 8 8 -7 18 -13 23 -13z m-5319 -32 c-16 -28 -27 -38 -36 -32
-5 3 -2 14 8 25 19 21 39 26 28 7z m5116 -192 c0 -3 -4 -8 -10 -11 -5 -3 -10
-1 -10 4 0 6 5 11 10 11 6 0 10 -2 10 -4z m-5330 -16 c0 -5 -5 -10 -11 -10 -5
0 -7 5 -4 10 3 6 8 10 11 10 2 0 4 -4 4 -10z m5245 -60 c-3 -5 -12 -10 -18
-10 -7 0 -6 4 3 10 19 12 23 12 15 0z m-5375 -60 c0 -5 -5 -10 -11 -10 -5 0
-7 5 -4 10 3 6 8 10 11 10 2 0 4 -4 4 -10z m-75 -88 c-3 -3 -11 0 -18 7 -9 10
-8 11 6 5 10 -3 15 -9 12 -12z m-67 -77 c-3 -3 -9 2 -12 12 -6 14 -5 15 5 6 7
-7 10 -15 7 -18z m5252 -55 c0 -5 -5 -10 -11 -10 -5 0 -7 5 -4 10 3 6 8 10 11
10 2 0 4 -4 4 -10z m-475 -538 c-3 -3 -11 0 -18 7 -9 10 -8 11 6 5 10 -3 15
-9 12 -12z m-5332 -59 c-7 -2 -13 -14 -14 -26 0 -21 -1 -21 -8 -2 -8 20 3 35
24 34 6 0 4 -3 -2 -6z m12 -63 c3 -6 -1 -7 -9 -4 -18 7 -21 14 -7 14 6 0 13
-4 16 -10z m-9 -22 c4 -7 3 -8 -4 -4 -7 4 -12 1 -12 -8 0 -9 6 -16 13 -17 10
0 10 -2 0 -6 -7 -2 -13 -15 -13 -29 0 -18 4 -22 18 -17 9 3 14 3 11 -1 -4 -4
-15 -8 -26 -10 -15 -3 -19 2 -18 25 0 16 3 29 8 29 4 0 3 9 -3 19 -7 14 -6 21
3 24 6 3 13 6 14 6 1 1 5 -4 9 -11z m5184 -12 c0 -3 -4 -8 -10 -11 -5 -3 -10
-1 -10 4 0 6 5 11 10 11 6 0 10 -2 10 -4z m-35 -46 c-3 -5 -11 -10 -16 -10 -6
0 -7 5 -4 10 3 6 11 10 16 10 6 0 7 -4 4 -10z m-5133 -47 c-10 -4 -10 -8 -1
-19 7 -8 9 -17 5 -21 -3 -3 -6 -1 -6 6 0 7 -4 10 -9 7 -7 -5 -8 11 -2 32 1 1
7 2 14 1 9 0 9 -2 -1 -6z m20 -83 c6 0 8 -3 5 -6 -10 -11 -38 17 -30 30 5 7 9
5 11 -6 2 -10 8 -18 14 -18z m5057 -32 c-7 -13 -11 -24 -10 -26 1 -1 -2 -10
-8 -19 -7 -13 -9 -10 -8 14 1 17 5 29 9 27 5 -3 8 2 8 10 0 9 5 16 10 16 7 0
6 -8 -1 -22z m-4934 -258 c3 -5 1 -10 -4 -10 -6 0 -11 5 -11 10 0 6 2 10 4 10
3 0 8 -4 11 -10z m19 -56 c3 -8 2 -12 -4 -9 -6 3 -10 10 -10 16 0 14 7 11 14
-7z m4764 -294 c-11 -18 -31 -21 -45 -6 -4 4 -3 7 2 6 27 -6 37 0 26 14 -10
12 -9 13 8 9 16 -4 18 -8 9 -23z m-21 -45 c0 -8 -4 -15 -9 -15 -10 0 -11 14
-1 23 9 10 10 9 10 -8z m-4513 -64 c-9 -9 -34 -9 -34 -1 0 5 9 8 20 7 10 -1
17 -3 14 -6z m4401 -201 c-3 -5 -12 -10 -18 -10 -7 0 -6 4 3 10 19 12 23 12
15 0z m-35 -65 c0 -12 -19 -12 -23 0 -4 9 -1 12 9 8 7 -3 14 -7 14 -8z m-3845
-405 c-1 -11 -4 -22 -7 -25 -4 -5 -4 34 1 43 4 8 7 -1 6 -18z m36 -43 c-10 -9
-11 -8 -5 6 3 10 9 15 12 12 3 -3 0 -11 -7 -18z m206 -203 c-3 -3 -12 -4 -19
-1 -8 3 -5 6 6 6 11 1 17 -2 13 -5z m87 -90 c3 -8 2 -12 -4 -9 -6 3 -10 10
-10 16 0 14 7 11 14 -7z m2718 -128 c7 4 8 2 4 -5 -9 -13 -26 -5 -25 12 0 9 2
8 6 -1 2 -6 10 -9 15 -6z m-2448 -102 c7 -19 2 -18 -19 6 -16 17 -16 20 -3 15
9 -4 19 -13 22 -21z m398 -289 c10 7 11 5 0 -6 -10 -11 -16 -9 -35 11 -22 24
-22 24 0 6 12 -10 27 -15 35 -11z m1625 -73 c7 6 16 8 19 5 3 -3 -3 -10 -14
-16 -16 -8 -23 -7 -33 7 -11 14 -11 15 1 5 10 -9 17 -10 27 -1z m-43 -60 c2
-4 -11 -20 -30 -36 -21 -16 -32 -32 -27 -39 4 -7 0 -6 -10 2 -9 7 -17 16 -17
19 0 3 3 2 7 -1 9 -9 64 44 57 55 -3 4 -1 8 5 8 5 0 12 -4 15 -8z m-1187 -107
c0 -8 -4 -12 -9 -9 -5 3 -6 10 -3 15 9 13 12 11 12 -6z m1068 -24 c3 -5 2 -12
-3 -15 -5 -3 -9 1 -9 9 0 17 3 19 12 6z m-616 -143 c14 5 14 3 2 -11 -10 -13
-18 -14 -32 -6 -11 5 -17 15 -13 20 4 7 10 7 16 1 6 -6 18 -8 27 -4z m64 -23
l19 -20 -6 20 c-6 18 -5 19 7 3 11 -14 16 -15 27 -5 12 10 12 9 1 -5 -11 -15
-11 -19 5 -24 11 -4 24 -9 29 -11 6 -3 1 3 -9 11 -17 14 -18 16 -3 16 9 0 17
-4 17 -10 0 -6 3 -9 8 -9 16 3 32 -1 32 -9 0 -15 -76 -7 -105 12 -42 28 -73
58 -55 54 8 -2 23 -12 33 -23z m181 -3 c3 -5 -1 -9 -9 -9 -8 0 -12 4 -9 9 3 4
7 8 9 8 2 0 6 -4 9 -8z m-10 -38 c5 -13 4 -14 -7 -6 -8 7 -18 8 -22 4 -5 -4
-5 -1 -1 6 10 17 23 15 30 -4z m24 -9 c-3 -3 -9 2 -12 12 -6 14 -5 15 5 6 7
-7 10 -15 7 -18z"/>
<path d="M7709 9625 c0 0 -2 -7 -4 -16 -2 -14 1 -14 21 -5 29 13 31 25 4 23
-11 -1 -20 -1 -21 -2z"/>
<path d="M7906 9618 c3 -4 0 -8 -5 -8 -6 0 -11 -4 -11 -10 0 -16 14 -12 27 8
9 15 8 19 -3 19 -7 0 -11 -4 -8 -9z"/>
<path d="M7944 9614 c-18 -14 -18 -15 4 -4 12 6 22 13 22 15 0 8 -5 6 -26 -11z"/>
<path d="M8005 9580 c3 -5 8 -10 11 -10 2 0 4 5 4 10 0 6 -5 10 -11 10 -5 0
-7 -4 -4 -10z"/>
<path d="M7395 9520 c-3 -5 -1 -10 4 -10 6 0 11 5 11 10 0 6 -2 10 -4 10 -3 0
-8 -4 -11 -10z"/>
<path d="M7166 9333 c-6 -14 -5 -15 5 -6 7 7 10 15 7 18 -3 3 -9 -2 -12 -12z"/>
<path d="M8691 9269 c13 -25 26 -31 35 -18 4 8 3 9 -4 5 -10 -6 -16 4 -14 25
1 3 -5 6 -13 6 -10 0 -11 -5 -4 -18z"/>
<path d="M7041 9233 c-1 -17 16 -25 25 -12 4 7 3 9 -4 5 -5 -3 -13 0 -15 6 -4
9 -6 10 -6 1z"/>
<path d="M6924 9102 c3 -5 0 -13 -6 -15 -9 -4 -10 -6 -1 -6 17 -1 25 16 12 25
-7 4 -9 3 -5 -4z"/>
<path d="M6735 8940 c-3 -5 -1 -10 4 -10 6 0 11 5 11 10 0 6 -2 10 -4 10 -3 0
-8 -4 -11 -10z"/>
<path d="M6637 8853 c-10 -9 -9 -23 1 -23 5 0 9 7 9 15 0 17 -1 18 -10 8z"/>
<path d="M6610 8820 c0 -13 18 -22 24 -11 3 5 -1 11 -9 15 -8 3 -15 1 -15 -4z"/>
<path d="M9256 8693 c-6 -14 -5 -15 5 -6 7 7 10 15 7 18 -3 3 -9 -2 -12 -12z"/>
<path d="M6384 8598 l-19 -23 23 19 c21 18 27 26 19 26 -2 0 -12 -10 -23 -22z"/>
<path d="M6216 8435 c4 -8 10 -12 15 -9 11 6 2 24 -11 24 -5 0 -7 -7 -4 -15z"/>
<path d="M9443 8295 c0 -8 4 -12 9 -9 4 3 8 9 8 15 0 5 -4 9 -8 9 -5 0 -9 -7
-9 -15z"/>
<path d="M9476 8137 c1 -17 3 -33 4 -34 2 -2 3 -7 4 -13 1 -11 11 -14 29 -7 9
4 9 6 -1 6 -7 1 -10 6 -7 11 4 6 1 9 -6 8 -7 -2 -13 8 -13 24 -1 14 -4 29 -7
32 -3 3 -4 -9 -3 -27z"/>
<path d="M5880 8122 c9 -19 30 -23 30 -5 0 4 -3 3 -7 0 -3 -4 -12 1 -20 11
-13 15 -13 15 -3 -6z"/>
<path d="M5853 8095 c0 -8 4 -12 9 -9 4 3 8 9 8 15 0 5 -4 9 -8 9 -5 0 -9 -7
-9 -15z"/>
<path d="M5730 7959 c0 -5 5 -7 10 -4 6 3 10 8 10 11 0 2 -4 4 -10 4 -5 0 -10
-5 -10 -11z"/>
<path d="M9523 7915 c0 -7 6 -11 14 -8 7 3 13 6 13 8 0 2 -6 5 -13 8 -8 3 -14
-1 -14 -8z"/>
<path d="M5635 7880 c3 -5 8 -10 11 -10 2 0 4 5 4 10 0 6 -5 10 -11 10 -5 0
-7 -4 -4 -10z"/>
<path d="M9524 7851 c2 -14 9 -27 17 -29 11 -3 12 -2 1 6 -8 5 -13 12 -12 16
1 4 -1 12 -4 19 -2 6 -3 1 -2 -12z"/>
<path d="M9490 7640 c0 -5 5 -10 10 -10 6 0 10 5 10 10 0 6 -4 10 -10 10 -5 0
-10 -4 -10 -10z"/>
<path d="M5298 7563 c10 -4 9 -9 -5 -20 -17 -13 -16 -13 5 -3 22 11 22 31 -1
29 -8 0 -8 -2 1 -6z"/>
<path d="M9460 7545 c-7 -9 -8 -15 -2 -15 5 0 12 7 16 15 3 8 4 15 2 15 -2 0
-9 -7 -16 -15z"/>
<path d="M5220 7484 c8 -10 15 -20 16 -22 1 -2 4 1 7 5 3 5 -4 15 -16 23 -21
12 -21 12 -7 -6z"/>
<path d="M9350 7339 c0 -5 5 -7 10 -4 6 3 10 8 10 11 0 2 -4 4 -10 4 -5 0 -10
-5 -10 -11z"/>
<path d="M4490 6749 c0 -5 5 -7 10 -4 6 3 10 8 10 11 0 2 -4 4 -10 4 -5 0 -10
-5 -10 -11z"/>
<path d="M4437 6720 c3 -11 9 -17 15 -14 5 3 4 12 -3 20 -16 19 -18 18 -12 -6z"/>
<path d="M4275 6580 c-3 -5 -1 -10 4 -10 6 0 11 5 11 10 0 6 -2 10 -4 10 -3 0
-8 -4 -11 -10z"/>
<path d="M8626 6498 c3 -5 10 -6 15 -3 13 9 11 12 -6 12 -8 0 -12 -4 -9 -9z"/>
<path d="M4142 6434 c-7 -8 -8 -14 -3 -14 10 0 25 19 20 25 -2 1 -10 -3 -17
-11z"/>
<path d="M8216 6078 c3 -5 10 -6 15 -3 13 9 11 12 -6 12 -8 0 -12 -4 -9 -9z"/>
<path d="M8155 6030 c-3 -5 -1 -10 4 -10 6 0 11 5 11 10 0 6 -2 10 -4 10 -3 0
-8 -4 -11 -10z"/>
<path d="M7807 5654 c-18 -21 -24 -35 -17 -39 6 -4 14 -4 17 -1 4 3 1 6 -6 6
-7 0 -9 5 -6 10 4 6 11 8 16 4 5 -3 8 0 7 7 -2 7 3 13 10 14 12 0 16 9 10 23
-2 5 -16 -6 -31 -24z"/>
<path d="M3301 5633 c-1 -17 16 -25 25 -12 4 7 3 9 -4 5 -5 -3 -13 0 -15 6 -4
9 -6 10 -6 1z"/>
<path d="M3240 5566 c7 -7 13 -7 20 0 6 6 3 10 -10 10 -13 0 -16 -4 -10 -10z"/>
<path d="M3060 5510 c-8 -5 -12 -11 -10 -14 3 -2 14 2 24 10 22 15 10 19 -14
4z"/>
<path d="M2765 5439 c-11 -16 -1 -19 13 -3 7 8 8 14 3 14 -5 0 -13 -5 -16 -11z"/>
<path d="M2410 5325 c0 -8 2 -15 4 -15 2 0 6 7 10 15 3 8 1 15 -4 15 -6 0 -10
-7 -10 -15z"/>
<path d="M2290 5282 c0 -5 7 -9 15 -9 8 0 12 4 9 9 -3 4 -9 8 -15 8 -5 0 -9
-4 -9 -8z"/>
<path d="M2172 5226 c4 -5 3 -15 -3 -22 -6 -7 -6 -14 -1 -18 6 -3 15 0 21 8 9
10 7 17 -6 27 -10 7 -15 9 -11 5z"/>
<path d="M7382 5189 c-8 -12 -9 -18 -4 -15 6 3 12 0 15 -6 2 -7 4 -1 4 15 0
15 0 27 -1 27 -1 0 -7 -9 -14 -21z"/>
<path d="M2066 5098 c3 -5 10 -6 15 -3 13 9 11 12 -6 12 -8 0 -12 -4 -9 -9z"/>
<path d="M1992 5033 c-11 -12 -17 -12 -30 -1 -15 11 -15 11 -4 -4 9 -11 10
-18 2 -23 -5 -3 -10 -11 -10 -17 0 -6 14 4 32 21 17 17 30 33 27 35 -2 2 -10
-3 -17 -11z"/>
<path d="M7195 4981 c-3 -5 -2 -12 3 -15 5 -3 9 1 9 9 0 17 -3 19 -12 6z"/>
<path d="M1903 4973 c4 -6 2 -13 -5 -15 -8 -3 -6 -6 4 -10 17 -7 19 15 3 29
-4 4 -5 3 -2 -4z"/>
<path d="M7106 4887 c3 -10 9 -15 12 -12 3 3 0 11 -7 18 -10 9 -11 8 -5 -6z"/>
<path d="M7056 4841 c-3 -5 1 -11 9 -14 9 -4 12 -1 8 9 -6 16 -10 17 -17 5z"/>
<path d="M1617 4675 c3 -8 9 -12 14 -9 12 7 11 11 -5 17 -10 4 -13 1 -9 -8z"/>
<path d="M6700 4450 c-12 -7 -10 -9 7 -7 12 0 19 5 17 9 -6 10 -6 10 -24 -2z"/>
<path d="M1333 4415 c0 -8 4 -12 9 -9 4 3 8 9 8 15 0 5 -4 9 -8 9 -5 0 -9 -7
-9 -15z"/>
<path d="M1035 4130 c-3 -5 -2 -10 4 -10 5 0 13 5 16 10 3 6 2 10 -4 10 -5 0
-13 -4 -16 -10z"/>
<path d="M6390 4079 c0 -5 5 -7 10 -4 6 3 10 8 10 11 0 2 -4 4 -10 4 -5 0 -10
-5 -10 -11z"/>
<path d="M6067 3749 c7 -7 15 -10 18 -7 3 3 -2 9 -12 12 -14 6 -15 5 -6 -5z"/>
<path d="M557 3673 c5 -12 3 -14 -7 -8 -9 5 -11 4 -6 -4 6 -9 11 -9 22 0 14
11 10 29 -6 29 -5 0 -6 -7 -3 -17z"/>
<path d="M5985 3680 c-3 -5 -1 -10 4 -10 6 0 11 5 11 10 0 6 -2 10 -4 10 -3 0
-8 -4 -11 -10z"/>
<path d="M507 3599 c7 -7 15 -10 18 -7 3 3 -2 9 -12 12 -14 6 -15 5 -6 -5z"/>
<path d="M489 3583 c0 -5 -3 -19 -5 -33 -4 -23 -4 -24 10 -5 7 10 12 25 9 32
-6 14 -13 17 -14 6z"/>
<path d="M455 3540 c3 -5 8 -10 11 -10 2 0 4 5 4 10 0 6 -5 10 -11 10 -5 0 -7
-4 -4 -10z"/>
<path d="M5746 3421 c-4 -5 -2 -12 3 -15 5 -4 12 -2 15 3 4 5 2 12 -3 15 -5 4
-12 2 -15 -3z"/>
<path d="M510 3089 c0 -5 -6 -7 -12 -3 -7 4 -9 3 -5 -1 13 -15 34 -14 34 1 0
8 -4 14 -9 14 -4 0 -8 -5 -8 -11z"/>
<path d="M530 3040 c-9 -6 -10 -10 -3 -10 6 0 15 5 18 10 8 12 4 12 -15 0z"/>
<path d="M580 2900 c-9 -6 -10 -10 -3 -10 6 0 15 5 18 10 8 12 4 12 -15 0z"/>
<path d="M5503 2864 c4 -4 2 -13 -4 -20 -7 -8 -7 -14 1 -19 5 -3 10 0 10 9 0
8 5 16 12 18 7 3 4 7 -7 12 -11 4 -16 4 -12 0z"/>
<path d="M656 2725 c4 -8 12 -15 20 -15 20 0 17 7 -6 20 -16 9 -18 8 -14 -5z"/>
<path d="M5443 2645 c0 -7 6 -11 14 -8 7 3 13 6 13 8 0 2 -6 5 -13 8 -8 3 -14
-1 -14 -8z"/>
<path d="M710 2640 c0 -5 5 -10 11 -10 5 0 7 5 4 10 -3 6 -8 10 -11 10 -2 0
-4 -4 -4 -10z"/>
<path d="M770 2519 c0 -5 5 -7 10 -4 6 3 10 8 10 11 0 2 -4 4 -10 4 -5 0 -10
-5 -10 -11z"/>
<path d="M795 2480 c3 -5 8 -10 11 -10 2 0 4 5 4 10 0 6 -5 10 -11 10 -5 0 -7
-4 -4 -10z"/>
<path d="M5380 2359 c-9 -16 -9 -24 0 -33 6 -6 11 -6 10 -1 -2 6 -2 19 -1 30
1 17 3 18 11 5 6 -9 10 -10 10 -3 0 22 -19 24 -30 2z"/>
<path d="M870 2366 c0 -2 7 -9 15 -16 13 -11 14 -10 9 4 -5 14 -24 23 -24 12z"/>
<path d="M894 2318 c-4 -7 -4 -10 1 -6 4 4 15 2 24 -5 14 -11 14 -10 2 6 -16
20 -18 21 -27 5z"/>
<path d="M5345 2290 c-3 -5 -3 -10 2 -10 4 0 1 -5 -7 -10 -8 -5 -10 -10 -4
-10 17 0 37 27 25 34 -5 4 -12 2 -16 -4z"/>
<path d="M947 2273 c-10 -9 -9 -23 1 -23 5 0 9 7 9 15 0 17 -1 18 -10 8z"/>
<path d="M5206 2095 c-9 -14 -12 -25 -6 -25 5 0 10 5 10 11 0 5 4 8 8 5 4 -2
9 4 9 15 2 25 -1 24 -21 -6z"/>
<path d="M5120 1995 c-11 -13 -10 -14 4 -9 9 3 16 10 16 15 0 13 -6 11 -20 -6z"/>
<path d="M1275 1831 c-3 -5 -2 -12 3 -15 5 -3 9 1 9 9 0 17 -3 19 -12 6z"/>
<path d="M1765 1350 c-16 -7 -17 -9 -3 -9 9 -1 20 4 23 9 7 11 7 11 -20 0z"/>
<path d="M4245 1030 c-3 -5 -1 -10 4 -10 6 0 11 5 11 10 0 6 -2 10 -4 10 -3 0
-8 -4 -11 -10z"/>
<path d="M4216 991 c-15 -17 -15 -19 1 -32 15 -11 16 -11 6 1 -10 11 -8 17 9
32 12 10 17 18 11 18 -5 0 -17 -8 -27 -19z"/>
<path d="M2527 769 c4 -13 8 -18 11 -10 2 7 -1 18 -6 23 -8 8 -9 4 -5 -13z"/>
<path d="M2550 750 c0 -5 5 -10 10 -10 6 0 10 5 10 10 0 6 -4 10 -10 10 -5 0
-10 -4 -10 -10z"/>
<path d="M3760 501 c-8 -6 -19 -7 -25 -3 -5 3 -4 -2 4 -11 7 -9 16 -17 19 -17
3 0 2 3 -2 7 -3 4 4 13 16 20 13 7 19 12 13 12 -5 1 -17 -3 -25 -8z"/>
<path d="M3173 468 c-2 -16 1 -18 10 -9 7 7 8 14 1 21 -6 6 -10 2 -11 -12z"/>
<path d="M3575 420 c-4 -6 -13 -9 -19 -7 -7 3 -13 -1 -13 -9 0 -8 3 -14 6 -15
3 0 14 -2 24 -4 9 -2 15 1 12 5 -3 5 -1 11 5 15 5 3 10 2 10 -3 0 -6 6 -12 13
-15 8 -3 14 1 14 9 0 8 -3 12 -5 9 -3 -3 -13 2 -23 11 -12 11 -19 12 -24 4z
m15 -4 c0 -2 -8 -10 -17 -17 -16 -13 -17 -12 -4 4 13 16 21 21 21 13z"/>
</g>
</svg>
